<svg width="219" height="202" viewBox="0 0 219 202" fill="none" xmlns="http://www.w3.org/2000/svg">
<path fill-rule="evenodd" clip-rule="evenodd" d="M108.69 19.8515H74.625L54.1458 0.63501C49.8097 5.25604 47.4869 11.4103 47.6884 17.744C47.8899 24.0776 50.5991 30.0718 55.2202 34.4079C56.7458 35.8395 57.0135 38.2928 55.6696 39.8962C49.8417 46.8487 45.8462 55.3892 44.426 64.7747C54.4686 64.7747 62.0121 72.4726 62.0121 81.9735C62.0121 87.4417 54.3223 97.2323 54.3223 97.2323C47.6884 104.254 41.134 120.349 62.0121 144.024C69.382 152.381 70.7525 158.63 70.7796 165.96C70.7959 170.364 69.7448 176.477 68.9032 180.655C76.385 182.631 84.2421 183.684 92.3452 183.684C122.6 183.684 149.426 169.004 166.089 146.378L165.268 174.966C165.268 189.628 177.154 201.513 191.815 201.513C205.834 201.513 217.315 190.647 218.295 176.878C216.026 179.209 212.854 180.657 209.344 180.657C202.446 180.657 196.854 175.066 196.854 168.168L196.854 134.166C196.854 122.46 191.638 111.529 183.126 103.88C178.847 100.035 173.734 97.0188 168.033 95.1508C163.598 93.698 158.807 92.9396 153.774 93.0255H149.89C145.165 93.225 139.508 94.264 135.131 96.0994C130.236 98.1522 124.328 102.161 120.582 105.954C120.41 106.128 120.224 106.314 120.025 106.514C116.551 109.999 109.067 117.508 104.655 130.358C104.378 131.165 103.843 130.829 103.973 130.202C104.732 126.533 105.725 122.451 106.825 119.764C109.259 113.814 112.826 108.409 117.324 103.855C121.189 99.9413 125.677 96.7229 130.593 94.3311C131.302 93.9859 131.209 92.8621 130.461 92.6093C125.322 90.8717 121.303 87.461 121.303 81.9735C121.303 72.9966 128.179 65.6256 136.952 64.8398C135.669 56.2854 132.246 48.431 127.247 41.8383C125.559 39.6122 126.058 36.3196 128.095 34.4079C132.716 30.0718 135.426 24.0776 135.627 17.744C135.828 11.4103 133.506 5.25604 129.17 0.63501L108.69 19.8515ZM68.6397 36.7902C68.5036 40.4504 71.4188 43.6703 76.164 44.86C81.8817 46.2936 85.2016 41.4749 85.2016 41.4749C85.2016 41.4749 78.7993 32.4514 68.6397 36.7902ZM106.979 44.86C111.724 43.6703 114.639 40.4504 114.503 36.7902C104.344 32.4514 97.9415 41.4749 97.9415 41.4749C97.9415 41.4749 101.261 46.2936 106.979 44.86ZM143.633 16.344C143.644 16.8943 143.64 17.4461 143.623 17.9989C143.52 21.2352 142.926 24.4051 141.887 27.4099C160.49 41.6647 172.771 63.7554 173.8 88.7497C177.39 90.2087 180.755 92.0599 183.847 94.2407C183.862 93.5489 183.87 92.8553 183.87 92.1598C183.87 60.6173 167.914 32.8016 143.633 16.344ZM62.6989 168.126C62.4814 171.201 61.8563 175.014 61.2229 178.257C25.9961 165.521 0.820557 131.78 0.820557 92.1598C0.820557 61.2189 16.1739 33.864 39.6777 17.298C39.68 17.5314 39.6849 17.765 39.6923 17.9989C39.8048 21.537 40.5037 24.9958 41.7305 28.2462C22.899 43.1795 10.8206 66.2591 10.8206 92.1598C10.8206 126.726 32.3326 156.267 62.6989 168.126Z" fill="black"/>
</svg>
