<svg width="219" height="201" viewBox="0 0 219 201" fill="none" xmlns="http://www.w3.org/2000/svg">
<circle cx="92.3452" cy="91.5246" r="91.5246" fill="url(#paint0_linear_212_141)"/>
<path fill-rule="evenodd" clip-rule="evenodd" d="M74.625 19.2165H108.69L129.17 0C133.506 4.62103 135.828 10.7753 135.627 17.1089C135.426 23.4426 132.716 29.4368 128.095 33.7729C126.058 35.6846 125.559 38.9771 127.247 41.2033C132.246 47.796 135.669 55.6504 136.952 64.2048C128.179 64.9906 121.303 72.3616 121.303 81.3385C121.303 86.826 125.322 90.2367 130.461 91.9743C131.209 92.2271 131.302 93.3509 130.593 93.6961C125.677 96.0879 121.189 99.3062 117.324 103.22C112.826 107.774 109.259 113.179 106.825 119.129C105.725 121.816 104.732 125.898 103.973 129.567C103.843 130.194 104.378 130.53 104.655 129.723C109.067 116.873 116.551 109.364 120.025 105.879C120.224 105.679 120.41 105.493 120.582 105.319C124.328 101.526 130.236 97.5172 135.131 95.4644C139.508 93.629 145.165 92.59 149.89 92.3905H153.774C158.807 92.3046 163.598 93.063 168.033 94.5158C173.734 96.3838 178.847 99.3997 183.126 103.245C191.638 110.894 196.854 121.825 196.854 133.531L196.854 167.533C196.854 174.431 202.446 180.022 209.344 180.022C212.854 180.022 216.026 178.574 218.295 176.243C217.315 190.012 205.834 200.878 191.815 200.878C177.154 200.878 165.268 188.993 165.268 174.331L166.089 145.743C149.426 168.369 122.6 183.049 92.3452 183.049C84.2421 183.049 76.385 181.996 68.9032 180.02C69.7448 175.842 70.7959 169.729 70.7796 165.325C70.7525 157.995 69.382 151.746 62.0121 143.389C41.134 119.714 47.6884 103.619 54.3223 96.5973C54.3223 96.5973 62.0121 86.8067 62.0121 81.3385C62.0121 71.8376 54.4686 64.1396 44.426 64.1396C45.8462 54.7542 49.8417 46.2137 55.6696 39.2612C57.0135 37.6578 56.7458 35.2045 55.2202 33.7729C50.5991 29.4368 47.8899 23.4426 47.6884 17.1089C47.4869 10.7753 49.8097 4.62103 54.1458 0L74.625 19.2165ZM76.164 44.225C71.4188 43.0352 68.5036 39.8154 68.6397 36.1552C78.7993 31.8164 85.2016 40.8399 85.2016 40.8399C85.2016 40.8399 81.8817 45.6586 76.164 44.225ZM114.503 36.1552C114.639 39.8154 111.724 43.0352 106.979 44.225C101.261 45.6586 97.9415 40.8399 97.9415 40.8399C97.9415 40.8399 104.344 31.8164 114.503 36.1552Z" fill="#000584"/>
<defs>
<linearGradient id="paint0_linear_212_141" x1="92.3452" y1="0" x2="92.3452" y2="183.049" gradientUnits="userSpaceOnUse">
<stop stop-color="#FFDB80"/>
<stop offset="1" stop-color="#FFB067"/>
</linearGradient>
</defs>
</svg>
