<svg width="219" height="202" viewBox="0 0 219 202" fill="none" xmlns="http://www.w3.org/2000/svg">
<circle opacity="0.2" cx="92.3452" cy="92.2813" r="91.5246" fill="black"/>
<path fill-rule="evenodd" clip-rule="evenodd" d="M74.625 19.9732H108.69L129.17 0.756714C133.506 5.37775 135.828 11.532 135.627 17.8657C135.426 24.1993 132.716 30.1935 128.095 34.5296C126.058 36.4413 125.559 39.7339 127.247 41.96C132.246 48.5527 135.669 56.4071 136.952 64.9615C128.179 65.7473 121.303 73.1183 121.303 82.0952C121.303 87.5827 125.322 90.9934 130.461 92.731C131.209 92.9838 131.302 94.1076 130.593 94.4528C125.677 96.8446 121.189 100.063 117.324 103.977C112.826 108.53 109.259 113.936 106.825 119.885C105.725 122.573 104.732 126.655 103.973 130.324C103.843 130.951 104.378 131.287 104.655 130.48C109.067 117.63 116.551 110.121 120.025 106.635C120.224 106.436 120.41 106.249 120.582 106.076C124.328 102.283 130.236 98.2739 135.131 96.2211C139.508 94.3857 145.165 93.3467 149.89 93.1472H153.774C158.807 93.0613 163.598 93.8197 168.033 95.2725C173.734 97.1405 178.847 100.156 183.126 104.002C191.638 111.651 196.854 122.582 196.854 134.288L196.854 168.29C196.854 175.187 202.446 180.779 209.344 180.779C212.854 180.779 216.026 179.331 218.295 176.999C217.315 190.769 205.834 201.635 191.815 201.635C177.154 201.635 165.268 189.749 165.268 175.088L166.089 146.5C149.426 169.126 122.6 183.806 92.3452 183.806C84.2421 183.806 76.385 182.753 68.9032 180.776C69.7448 176.599 70.7959 170.486 70.7796 166.082C70.7525 158.752 69.382 152.502 62.0121 144.145C41.134 120.471 47.6884 104.376 54.3223 97.354C54.3223 97.354 62.0121 87.5634 62.0121 82.0952C62.0121 72.5943 54.4686 64.8964 44.426 64.8964C45.8462 55.5109 49.8417 46.9704 55.6696 40.0179C57.0135 38.4145 56.7458 35.9612 55.2202 34.5296C50.5991 30.1935 47.8899 24.1993 47.6884 17.8657C47.4869 11.532 49.8097 5.37775 54.1458 0.756714L74.625 19.9732ZM76.164 44.9817C71.4188 43.792 68.5036 40.5721 68.6397 36.9119C78.7993 32.5731 85.2016 41.5966 85.2016 41.5966C85.2016 41.5966 81.8817 46.4153 76.164 44.9817ZM114.503 36.9119C114.639 40.5721 111.724 43.792 106.979 44.9817C101.261 46.4153 97.9415 41.5966 97.9415 41.5966C97.9415 41.5966 104.344 32.5731 114.503 36.9119Z" fill="black"/>
</svg>
