<?xml version="1.0" encoding="UTF-8" standalone="no"?>
<!-- Created with Inkscape (http://www.inkscape.org/) -->

<svg
   width="200"
   height="200"
   viewBox="0 0 52.916665 52.916666"
   version="1.1"
   id="svg378"
   inkscape:version="1.2.1 (9c6d41e, 2022-07-14)"
   sodipodi:docname="logo-friendly-mono.svg"
   xmlns:inkscape="http://www.inkscape.org/namespaces/inkscape"
   xmlns:sodipodi="http://sodipodi.sourceforge.net/DTD/sodipodi-0.dtd"
   xmlns="http://www.w3.org/2000/svg"
   xmlns:svg="http://www.w3.org/2000/svg">
  <sodipodi:namedview
     id="namedview380"
     pagecolor="#ffffff"
     bordercolor="#111111"
     borderopacity="1"
     inkscape:showpageshadow="0"
     inkscape:pageopacity="0"
     inkscape:pagecheckerboard="1"
     inkscape:deskcolor="#d1d1d1"
     inkscape:document-units="mm"
     showgrid="false"
     inkscape:zoom="1.1893044"
     inkscape:cx="123.60166"
     inkscape:cy="239.21546"
     inkscape:window-width="1920"
     inkscape:window-height="1200"
     inkscape:window-x="0"
     inkscape:window-y="0"
     inkscape:window-maximized="1"
     inkscape:current-layer="layer1" />
  <defs
     id="defs375" />
  <g
     inkscape:label="Layer 1"
     inkscape:groupmode="layer"
     id="layer1">
    <path
       id="circle666-5-6-6"
       style="display:inline;opacity:0.2;stroke-width:0.243322"
       d="M 44.540019,24.915865 A 22.270009,22.270009 0 0 1 22.27,47.185889 22.270009,22.270009 0 0 1 0,24.915865 22.270009,22.270009 0 0 1 22.27,2.6458578 22.270009,22.270009 0 0 1 44.540019,24.915865 Z" />
    <path
       id="path668-6-0-2"
       style="display:inline;stroke-width:0.243322"
       d="m 12.975021,2.6458334 c -1.055075,1.1244067 -1.619916,2.6220447 -1.5709,4.1631807 0.04907,1.5411105 0.708349,2.9995832 1.832707,4.0546599 0.371204,0.348339 0.436141,0.945422 0.109141,1.335575 -1.418052,1.6917 -2.39055,3.769598 -2.736118,6.05329 2.443596,0 4.279257,1.872847 4.279257,4.184643 0,1.330458 -1.871186,3.71272 -1.871186,3.71272 -1.614179,1.708621 -3.208934,5.62509 1.871186,11.385503 1.793261,2.033387 2.127194,3.554317 2.13364,5.337873 0.0037,1.071594 -0.251978,2.558843 -0.45676,3.575194 1.820498,0.481055 3.732118,0.737502 5.703792,0.737502 7.361614,0 13.889074,-3.572385 17.943491,-9.077732 l -0.199361,6.95608 c 0,3.567356 2.892238,6.459582 6.459582,6.459582 3.411151,0 6.204721,-2.643434 6.443174,-5.993994 -0.552096,0.567427 -1.324354,0.919197 -2.178421,0.919197 -1.678442,0 -3.038945,-1.360124 -3.038945,-3.038323 v -8.273987 c 0,-2.848338 -1.269367,-5.507507 -3.340526,-7.368688 -1.041109,-0.935814 -2.28517,-1.669641 -3.672347,-2.124179 -1.079065,-0.35349 -2.244564,-0.53819 -3.469201,-0.517313 h -0.945067 c -1.149702,0.04858 -2.526576,0.301617 -3.591602,0.74822 -1.191063,0.499489 -2.62838,1.47443 -3.539862,2.397352 -0.04187,0.04212 -0.08729,0.0879 -0.135646,0.136261 -0.845314,0.848231 -2.666312,2.675578 -3.739847,5.802202 -0.06739,0.196334 -0.197567,0.114758 -0.165922,-0.03784 0.184674,-0.892694 0.4263,-1.886496 0.693955,-2.540555 0.592248,-1.447523 1.459975,-2.762598 2.554447,-3.870455 0.940366,-0.952368 2.032726,-1.735858 3.228833,-2.317851 0.172539,-0.08399 0.149844,-0.357385 -0.03223,-0.418903 -1.250445,-0.422797 -2.22828,-1.252703 -2.22828,-2.587861 0,-2.184292 1.673389,-3.977664 3.807993,-4.16887 -0.312177,-2.081475 -1.145014,-3.992375 -2.361385,-5.59653 C 30.35189,12.13013 30.473265,11.328852 30.968909,10.863679 32.093302,9.8086023 32.752696,8.3501295 32.801614,6.8090189 32.850564,5.267883 32.285143,3.770245 31.230104,2.6458383 l -4.983329,4.6760714 h -8.288492 z m 4.670398,8.5957486 c 1.711612,-0.0227 2.739916,1.427051 2.739916,1.427051 0,0 -0.266361,0.384243 -0.75452,0.647282 a 0.94695142,0.84252122 0 0 0 0.06178,-0.300311 0.94695142,0.84252122 0 0 0 -0.946313,-0.842225 0.94695142,0.84252122 0 0 0 -0.947583,0.842225 0.94695142,0.84252122 0 0 0 0.110364,0.39241 c -0.988752,-0.338279 -1.584224,-1.062913 -1.553861,-1.879391 0.463511,-0.197957 0.895159,-0.281804 1.290146,-0.287041 z m 8.579976,0 c 0.394975,0.0061 0.826036,0.08912 1.289524,0.287041 0.01685,0.45228 -0.158574,0.87636 -0.48578,1.222648 a 0.98121247,0.87300407 0 0 0 -0.968409,-0.734354 0.98121247,0.87300407 0 0 0 -0.981643,0.873137 0.98121247,0.87300407 0 0 0 0.332468,0.651079 c -1.223489,0.145877 -1.926076,-0.8725 -1.926076,-0.8725 0,0 1.028365,-1.449783 2.739916,-1.427051 z m -10.169152,3.954982 3.822497,0.411333 -0.06494,0.604383 -3.822509,-0.410711 z m 12.117935,0.05738 0.06507,0.605018 -3.822508,0.410698 -0.06494,-0.604383 z m -6.093029,0.256129 a 1.5823768,1.0409533 0 0 1 1.582242,1.040963 1.5823768,1.0409533 0 0 1 -1.582242,1.040939 1.5823768,1.0409533 0 0 1 -1.582253,-1.040939 1.5823768,1.0409533 0 0 1 1.582253,-1.040963 z m -2.175283,1.274386 0.145731,0.591124 -3.732278,0.92109 -0.145742,-0.590502 z m 4.416162,0.126795 3.732289,0.921725 -0.14573,0.589866 -3.73229,-0.921077 z" />
  </g>
</svg>
