<?xml version="1.0" encoding="UTF-8" standalone="no"?>
<!-- Created with Inkscape (http://www.inkscape.org/) -->

<svg
   width="200"
   height="200"
   viewBox="0 0 52.916665 52.916666"
   version="1.1"
   id="svg665"
   inkscape:version="1.2.1 (9c6d41e, 2022-07-14)"
   sodipodi:docname="logo-friendly-yellow.svg"
   xmlns:inkscape="http://www.inkscape.org/namespaces/inkscape"
   xmlns:sodipodi="http://sodipodi.sourceforge.net/DTD/sodipodi-0.dtd"
   xmlns:xlink="http://www.w3.org/1999/xlink"
   xmlns="http://www.w3.org/2000/svg"
   xmlns:svg="http://www.w3.org/2000/svg">
  <sodipodi:namedview
     id="namedview667"
     pagecolor="#ffffff"
     bordercolor="#111111"
     borderopacity="1"
     inkscape:showpageshadow="0"
     inkscape:pageopacity="0"
     inkscape:pagecheckerboard="1"
     inkscape:deskcolor="#d1d1d1"
     inkscape:document-units="mm"
     showgrid="false"
     inkscape:zoom="1.1893044"
     inkscape:cx="-68.947866"
     inkscape:cy="182.03918"
     inkscape:window-width="1920"
     inkscape:window-height="1200"
     inkscape:window-x="0"
     inkscape:window-y="0"
     inkscape:window-maximized="1"
     inkscape:current-layer="layer1" />
  <defs
     id="defs662">
    <linearGradient
       inkscape:collect="always"
       xlink:href="#paint0_linear_212_141"
       id="linearGradient2874"
       gradientUnits="userSpaceOnUse"
       gradientTransform="matrix(0.26458333,0,0,0.26458333,-141.55647,110.91134)"
       x1="92.3452"
       y1="0"
       x2="92.3452"
       y2="183.049" />
    <linearGradient
       id="paint0_linear_212_141"
       x1="92.3452"
       y1="0"
       x2="92.3452"
       y2="183.049"
       gradientUnits="userSpaceOnUse"
       gradientTransform="matrix(0.26458333,0,0,0.26458333,-141.55647,110.91134)">
      <stop
         stop-color="#FFDB80"
         id="stop1086" />
      <stop
         offset="1"
         stop-color="#FFB067"
         id="stop1088" />
    </linearGradient>
  </defs>
  <g
     inkscape:label="Layer 1"
     inkscape:groupmode="layer"
     id="layer1">
    <g
       id="g1626-2-9"
       transform="matrix(0.91897931,0,0,0.91897931,129.88794,-99.145096)"
       style="display:inline">
      <circle
         cx="-117.12347"
         cy="135.12723"
         r="24.215883"
         fill="url(#paint0_linear_212_141)"
         id="circle1082-9-2"
         style="fill:url(#linearGradient2874);stroke-width:0.264583" />
    </g>
    <path
       id="path668-6-0-2-3"
       style="display:inline;fill:#000584;fill-opacity:1;stroke-width:0.243146"
       d="m 13.003837,3.1750011 c -1.054314,1.1235954 -1.618747,2.6201527 -1.569766,4.1601768 0.04904,1.539999 0.707837,2.9974331 1.831384,4.0517351 0.370937,0.348101 0.435826,0.94474 0.109063,1.334623 -1.417029,1.69048 -2.388826,3.766878 -2.734145,6.048922 2.441833,0 4.27617,1.871496 4.27617,4.181611 0,1.32951 -1.869837,3.710053 -1.869837,3.710053 -1.613013,1.707389 -3.2066166,5.621026 1.869837,11.377283 1.791967,2.031919 2.125659,3.551753 2.1321,5.334022 0.0037,1.07082 -0.251797,2.556996 -0.45643,3.572614 1.819184,0.480707 3.729437,0.736969 5.699676,0.736969 7.356302,0 13.879052,-3.569807 17.930544,-9.071181 l -0.199218,6.951061 c 0,3.564781 2.890151,6.45492 6.454921,6.45492 3.408689,0 6.200244,-2.641526 6.438524,-5.989669 -0.551696,0.567019 -1.323398,0.918534 -2.176848,0.918534 -1.677219,0 -3.036752,-1.359142 -3.036752,-3.03613 v -8.268017 c 0,-2.846282 -1.268452,-5.503534 -3.338116,-7.363367 -1.040358,-0.935137 -2.28352,-1.668435 -3.669697,-2.122646 -1.078286,-0.353235 -2.242945,-0.537801 -3.466698,-0.51694 h -0.944385 c -1.148872,0.04855 -2.524753,0.3014 -3.58901,0.747681 -1.190204,0.499129 -2.626484,1.473366 -3.537308,2.395621 -0.04184,0.04209 -0.08723,0.08784 -0.135548,0.136159 -0.844691,0.847619 -2.664388,2.673647 -3.737148,5.798016 -0.06734,0.196191 -0.197424,0.114675 -0.165803,-0.03782 0.184541,-0.892049 0.425993,-1.885134 0.693454,-2.538721 0.591821,-1.446478 1.458922,-2.760605 2.552604,-3.867658 0.939688,-0.95168 2.03126,-1.734605 3.226503,-2.316178 0.172415,-0.08393 0.149736,-0.357127 -0.03221,-0.4186 -1.249542,-0.422505 -2.226671,-1.2518 -2.226671,-2.586007 0,-2.182704 1.672181,-3.974781 3.805246,-4.165849 -0.311953,-2.079973 -1.144188,-3.989494 -2.359682,-5.592492 -0.410427,-0.541278 -0.289128,-1.341978 0.206146,-1.806815 1.123583,-1.054302 1.782501,-2.5117361 1.831384,-4.0517351 0.04892,-1.5400241 -0.516098,-3.0365814 -1.570376,-4.1601768 l -4.979737,4.6727128 h -8.28251 z m 4.667028,8.5895479 c 1.710377,-0.02269 2.737951,1.42602 2.737951,1.42602 0,0 -0.266181,0.383978 -0.753988,0.646815 a 0.94626809,0.84191328 0 0 0 0.06173,-0.300082 0.94626809,0.84191328 0 0 0 -0.94563,-0.841617 0.94626809,0.84191328 0 0 0 -0.94691,0.841617 0.94626809,0.84191328 0 0 0 0.110283,0.392127 c -0.988036,-0.338035 -1.583077,-1.062146 -1.552737,-1.878047 0.463165,-0.197802 0.894514,-0.2816 1.289216,-0.286833 z m 8.573785,0 c 0.394689,0.0061 0.82544,0.08906 1.288593,0.286833 0.01684,0.451966 -0.158459,0.875739 -0.485429,1.221777 a 0.98050447,0.87237413 0 0 0 -0.96771,-0.733822 0.98050447,0.87237413 0 0 0 -0.980935,0.872506 0.98050447,0.87237413 0 0 0 0.332228,0.650609 c -1.222606,0.14576 -1.924686,-0.871883 -1.924686,-0.871883 0,0 1.027623,-1.448736 2.737939,-1.42602 z m -10.161814,3.952139 3.819738,0.411036 -0.0649,0.603947 -3.81975,-0.410414 z m 12.10919,0.05734 0.06502,0.604569 -3.81975,0.410415 -0.0649,-0.603947 z m -6.088631,0.255945 a 1.5812349,1.0402022 0 0 1 1.581099,1.040212 1.5812349,1.0402022 0 0 1 -1.581099,1.040187 1.5812349,1.0402022 0 0 1 -1.581112,-1.040187 1.5812349,1.0402022 0 0 1 1.581112,-1.040212 z m -2.173713,1.273466 0.145625,0.590698 -3.729585,0.920425 -0.145637,-0.590076 z m 4.412974,0.126703 3.729596,0.92106 -0.145625,0.589442 -3.729597,-0.920413 z" />
  </g>
</svg>
