<svg width="1000" height="1000" viewBox="0 0 1000 1000" fill="none" xmlns="http://www.w3.org/2000/svg"><script xmlns=""/><link xmlns="" type="text/css" id="dark-mode" rel="stylesheet" href=""/><style xmlns="" type="text/css" id="dark-mode-custom-style"/>
<path d="M939.012 248.146L499.501 3.01904L60 248.146V751.336L499.501 996.464L939.012 751.336V248.146Z" fill="url(#paint0_linear_5494_2896)"/>
<path opacity="0.2" d="M499.511 996.473L939.021 751.346V248.146L499.511 493.274V996.473Z" fill="black"/>
<path opacity="0.36" d="M499.501 996.464L60 751.336V248.146L499.501 493.274V996.464Z" fill="black"/>
<path d="M499.511 996.473L939.021 751.346V248.146L499.511 493.274V996.473Z" stroke="#28D628" stroke-width="5.97" stroke-linecap="round" stroke-linejoin="round"/>
<path d="M499.501 996.464L60 751.336V248.146L499.501 493.274V996.464Z" stroke="#28D628" stroke-width="5.97" stroke-linecap="round" stroke-linejoin="round"/>
<path d="M939.012 248.117L499.501 3L60 248.117L499.501 493.244L939.012 248.117Z" stroke="#28D628" stroke-width="5.97" stroke-linecap="round" stroke-linejoin="round"/>
<path d="M754.696 794.037L755.352 681.141L755.283 681.121L754.628 794.017L754.696 794.037Z" fill="black" stroke="#28D628" stroke-width="7.61" stroke-linecap="round" stroke-linejoin="round"/>
<path d="M755.352 681.141C730.626 678.998 705.88 676.914 681.164 674.693C705.89 676.835 730.636 678.919 755.352 681.141Z" fill="black" stroke="#28D628" stroke-width="7.61" stroke-linecap="round" stroke-linejoin="round"/>
<path d="M681.223 674.702L680.176 835.426L680.107 835.407L681.154 674.683L681.213 674.702H681.223Z" fill="black" stroke="#28D628" stroke-width="7.61" stroke-linecap="round" stroke-linejoin="round"/>
<path d="M680.176 835.426L547.652 909.037L547.583 909.017L680.107 835.407L680.176 835.426Z" fill="black" stroke="#28D628" stroke-width="7.61" stroke-linecap="round" stroke-linejoin="round"/>
<path d="M547.651 909.037L550.626 529.311L550.567 529.291L547.593 909.017L547.661 909.037H547.651Z" fill="black" stroke="#28D628" stroke-width="7.61" stroke-linecap="round" stroke-linejoin="round"/>
<path d="M550.636 529.311L682.661 454.154L682.603 454.135L550.577 529.291L550.636 529.311Z" fill="black" stroke="#28D628" stroke-width="7.61" stroke-linecap="round" stroke-linejoin="round"/>
<path d="M682.662 454.154L682.016 553.959L681.957 553.939L682.603 454.135L682.662 454.154Z" fill="black" stroke="#28D628" stroke-width="7.61" stroke-linecap="round" stroke-linejoin="round"/>
<path d="M682.016 553.959L756.057 559.996C731.36 557.902 706.654 555.955 681.957 553.939L682.016 553.959Z" fill="black" stroke="#28D628" stroke-width="7.61" stroke-linecap="round" stroke-linejoin="round"/>
<path d="M756.057 559.996L756.908 411.894L756.84 411.875L755.988 559.976L756.047 559.996H756.057Z" fill="black" stroke="#28D628" stroke-width="7.61" stroke-linecap="round" stroke-linejoin="round"/>
<path d="M756.908 411.894L890.939 335.602L890.871 335.583L756.839 411.874L756.908 411.894Z" fill="black" stroke="#28D628" stroke-width="7.61" stroke-linecap="round" stroke-linejoin="round"/>
<path d="M889.236 719.311L754.696 794.037L754.628 794.017L889.168 719.291L889.236 719.311Z" fill="black" stroke="#28D628" stroke-width="7.61" stroke-linecap="round" stroke-linejoin="round"/>
<path d="M890.939 335.602L889.236 719.311L889.168 719.291L890.871 335.583L890.939 335.602Z" fill="black" stroke="#28D628" stroke-width="7.61" stroke-linecap="round" stroke-linejoin="round"/>
<path d="M890.871 335.583L889.178 719.291L754.638 794.017L755.293 681.121L681.164 674.692L680.117 835.417L547.593 909.017L550.567 529.291L682.603 454.135L681.947 553.939L755.988 559.976L756.839 411.874L890.871 335.583Z" fill="black" stroke="#28D628" stroke-width="7.61" stroke-linecap="round" stroke-linejoin="round"/>
<path d="M889.236 719.311L890.939 335.602L756.908 411.894L756.056 559.996L682.015 553.959L682.661 454.154L550.636 529.311L547.651 909.037L680.176 835.426L681.223 674.702L755.352 681.141L754.696 794.037L889.236 719.311Z" fill="black" stroke="#28D628" stroke-width="7.61" stroke-linecap="round" stroke-linejoin="round"/>
<path d="M400.215 689.878L453.669 719.565L453.728 719.546L400.274 689.859L400.215 689.878Z" fill="black" stroke="#28D628" stroke-width="7.61" stroke-linecap="round" stroke-linejoin="round"/>
<path d="M453.669 719.565L453.757 908.332L453.816 908.313L453.728 719.546L453.669 719.565Z" fill="black" stroke="#28D628" stroke-width="7.61" stroke-linecap="round" stroke-linejoin="round"/>
<path d="M453.757 908.333L318.777 834.34L318.845 834.321L453.816 908.313L453.757 908.333Z" fill="black" stroke="#28D628" stroke-width="7.61" stroke-linecap="round" stroke-linejoin="round"/>
<path d="M318.777 834.34L318.885 696.19L318.953 696.18L318.845 834.321L318.777 834.34Z" fill="black" stroke="#28D628" stroke-width="7.61" stroke-linecap="round" stroke-linejoin="round"/>
<path d="M318.885 696.19L242.975 702.09C268.298 700.055 293.63 698.147 318.953 696.18H318.885V696.19Z" fill="black" stroke="#28D628" stroke-width="7.61" stroke-linecap="round" stroke-linejoin="round"/>
<path d="M242.974 702.09L242.837 792.706L242.906 792.687L243.033 702.08L242.974 702.09Z" fill="black" stroke="#28D628" stroke-width="7.61" stroke-linecap="round" stroke-linejoin="round"/>
<path d="M242.837 792.706L105.685 717.51L105.743 717.501L242.906 792.687L242.837 792.706Z" fill="black" stroke="#28D628" stroke-width="7.61" stroke-linecap="round" stroke-linejoin="round"/>
<path d="M105.685 717.51L106.702 336.297L106.771 336.278L105.743 717.501L105.685 717.51Z" fill="black" stroke="#28D628" stroke-width="7.61" stroke-linecap="round" stroke-linejoin="round"/>
<path d="M106.703 336.297L243.386 413.195L243.454 413.176L106.771 336.278L106.703 336.297Z" fill="black" stroke="#28D628" stroke-width="7.61" stroke-linecap="round" stroke-linejoin="round"/>
<path d="M243.385 413.195L243.141 581.738L243.209 581.728L243.454 413.176L243.385 413.195Z" fill="black" stroke="#28D628" stroke-width="7.61" stroke-linecap="round" stroke-linejoin="round"/>
<path d="M243.141 581.737C268.434 579.908 293.747 578.127 319.031 576.229C293.737 578.058 268.424 579.839 243.141 581.737Z" fill="black" stroke="#28D628" stroke-width="7.61" stroke-linecap="round" stroke-linejoin="round"/>
<path d="M318.973 576.248L319.061 455.769L319.129 455.749L319.041 576.229L318.973 576.248Z" fill="black" stroke="#28D628" stroke-width="7.61" stroke-linecap="round" stroke-linejoin="round"/>
<path d="M319.061 455.769L453.581 531.444L453.64 531.424L319.129 455.749L319.061 455.769Z" fill="black" stroke="#28D628" stroke-width="7.61" stroke-linecap="round" stroke-linejoin="round"/>
<path d="M453.581 531.444L453.65 685.475L453.562 685.739L400.215 689.888C418.014 688.46 435.822 687.109 453.63 685.73L453.718 685.465L453.65 531.434H453.581V531.444Z" fill="black" stroke="#28D628" stroke-width="7.61" stroke-linecap="round" stroke-linejoin="round"/>
<path d="M453.64 531.424L453.718 685.456L453.62 685.72L400.274 689.859L453.728 719.546L453.816 908.313L318.845 834.321L318.953 696.18L243.033 702.08L242.906 792.687L105.744 717.501L106.771 336.278L243.454 413.176L243.209 581.728L319.041 576.229L319.129 455.749L453.64 531.424Z" fill="black" stroke="#28D628" stroke-width="7.61" stroke-linecap="round" stroke-linejoin="round"/>
<path d="M453.649 685.466L453.581 531.444L319.06 455.769L318.972 576.248L243.141 581.738L243.385 413.195L106.702 336.297L105.685 717.511L242.837 792.706L242.974 702.09L318.884 696.19L318.777 834.34L453.757 908.332L453.669 719.565L400.215 689.878L453.561 685.73L453.649 685.466Z" fill="black" stroke="#28D628" stroke-width="7.61" stroke-linecap="round" stroke-linejoin="round"/>
<path d="M567.573 174.252L642.348 133V132.941L567.573 174.193V174.252Z" fill="black" stroke="#28D628" stroke-width="7.88" stroke-linecap="round" stroke-linejoin="round"/>
<path d="M567.446 245.583L567.358 297.52C567.387 280.192 567.417 262.853 567.446 245.524L642.319 204.164L642.338 132.941C642.338 156.698 642.329 180.466 642.319 204.223L567.446 245.583Z" fill="black" stroke="#28D628" stroke-width="7.88" stroke-linecap="round" stroke-linejoin="round"/>
<path d="M567.358 297.52L753.307 194.702V194.634L567.358 297.452V297.52Z" fill="black" stroke="#28D628" stroke-width="7.88" stroke-linecap="round" stroke-linejoin="round"/>
<path d="M753.307 194.702L849.423 248.117V248.049L753.307 194.634V194.702Z" fill="black" stroke="#28D628" stroke-width="7.88" stroke-linecap="round" stroke-linejoin="round"/>
<path d="M576.78 399.174L498.923 442.305V442.237C597.808 387.452 696.702 332.657 795.587 277.873C813.532 267.931 831.477 257.99 849.422 248.049V248.117L576.78 399.174Z" fill="black" stroke="#28D628" stroke-width="7.88" stroke-linecap="round" stroke-linejoin="round"/>
<path d="M430.979 404.213C431.096 376.375 431.213 348.548 431.331 320.71L430.979 404.154L498.924 442.246V442.315L430.979 404.223V404.213Z" fill="black" stroke="#28D628" stroke-width="7.88" stroke-linecap="round" stroke-linejoin="round"/>
<path d="M431.331 320.779L356.066 362.354V362.285L431.331 320.71V320.779Z" fill="black" stroke="#28D628" stroke-width="7.88" stroke-linecap="round" stroke-linejoin="round"/>
<path d="M431.634 249.242C431.702 231.953 431.781 214.653 431.849 197.364L431.634 249.184L356.468 290.651C356.331 314.556 356.194 338.46 356.066 362.364L356.468 290.72L431.634 249.252V249.242Z" fill="black" stroke="#28D628" stroke-width="7.88" stroke-linecap="round" stroke-linejoin="round"/>
<path d="M431.849 197.422L245.195 300.299V300.231L431.849 197.364V197.422Z" fill="black" stroke="#28D628" stroke-width="7.88" stroke-linecap="round" stroke-linejoin="round"/>
<path d="M245.196 300.299L149.579 246.786V246.718L245.196 300.231V300.299Z" fill="black" stroke="#28D628" stroke-width="7.88" stroke-linecap="round" stroke-linejoin="round"/>
<path d="M455.91 78.3028L500.078 54.0073V53.9388C401.194 108.332 302.309 162.716 203.425 217.1C185.479 226.972 167.524 236.845 149.579 246.718V246.786C251.693 190.622 353.787 134.438 455.91 78.3028Z" fill="black" stroke="#28D628" stroke-width="7.88" stroke-linecap="round" stroke-linejoin="round"/>
<path d="M567.71 91.5123L567.573 174.252C567.622 146.649 567.671 119.047 567.71 91.4438V91.5123Z" fill="black" stroke="#28D628" stroke-width="7.88" stroke-linecap="round" stroke-linejoin="round"/>
<path d="M500.078 54.0073L567.71 91.5122V91.4437L500.078 53.9388V54.0073Z" fill="black" stroke="#28D628" stroke-width="7.88" stroke-linecap="round" stroke-linejoin="round"/>
<path d="M500.078 53.9394L567.7 91.4443L567.563 174.184L642.338 132.931L642.319 204.154L567.446 245.514L567.358 297.442L753.297 194.624L849.423 248.039C758.503 298.411 667.583 348.792 576.654 399.164C550.744 413.518 524.834 427.873 498.914 442.237L430.969 404.145L431.321 320.7L356.057 362.276L356.458 290.632L431.624 249.164L431.839 197.344L245.186 300.211L149.569 246.698C243.62 194.966 337.661 143.225 431.722 91.503C454.511 78.9785 477.29 66.4443 500.078 53.9198V53.9394Z" fill="black" stroke="#28D628" stroke-width="7.88" stroke-linecap="round" stroke-linejoin="round"/>
<path d="M567.71 91.5126L500.088 54.0077C401.203 108.401 302.319 162.784 203.434 217.168C185.489 227.041 167.534 236.914 149.589 246.786L245.205 300.299L431.859 197.432L431.644 249.252L356.477 290.72L356.076 362.364L431.34 320.788L430.988 404.233L498.933 442.325C597.818 387.54 696.712 332.745 795.597 277.961C813.542 268.019 831.487 258.078 849.432 248.137L753.307 194.722L567.368 297.54L567.456 245.602L642.329 204.242L642.348 133.019L567.573 174.272L567.71 91.5322V91.5126Z" fill="black" stroke="#28D628" stroke-width="7.88" stroke-linecap="round" stroke-linejoin="round"/>
<defs>
<linearGradient id="paint0_linear_5494_2896" x1="499.501" y1="3.01904" x2="499.501" y2="996.464" gradientUnits="userSpaceOnUse">
<stop stop-color="#00B100"/>
<stop offset="0.16" stop-color="#00AA00"/>
<stop offset="0.4" stop-color="#009700"/>
<stop offset="0.67" stop-color="#007900"/>
<stop offset="0.97" stop-color="#004F00"/>
<stop offset="1" stop-color="#004B00"/>
</linearGradient>
</defs>
</svg>