<svg width="477" height="397" viewBox="0 0 477 397" fill="none" xmlns="http://www.w3.org/2000/svg">
<path d="M52.8849 317.839C50.324 317.839 47.9179 316.613 46.4127 314.541L24.4759 284.346V315.839C24.4759 316.944 23.5804 317.839 22.4759 317.839H2C0.895432 317.839 0 316.944 0 315.839V235.827C0 222.624 10.7034 211.92 23.9067 211.92C24.221 211.92 24.4759 212.175 24.4759 212.489V270.462L46.2662 241.193C47.7759 239.165 50.1551 237.97 52.6831 237.97H74.6122C76.3052 237.97 77.2324 239.943 76.1522 241.247L45.6596 278.048L76.3854 314.551C77.4803 315.852 76.5556 317.839 74.8553 317.839H52.8849Z" fill="black"/>
<path d="M79.4946 277.762C79.4946 269.555 81.0213 262.351 84.0749 256.148C87.2238 249.946 91.4701 245.175 96.8138 241.835C102.157 238.495 108.121 236.825 114.705 236.825C120.335 236.825 125.25 237.97 129.448 240.261C133.742 242.551 137.034 245.557 139.324 249.278C139.324 243.033 144.387 237.97 150.632 237.97H163.663C163.739 237.97 163.8 238.032 163.8 238.108V317.702C163.8 317.778 163.739 317.839 163.663 317.839H150.632C144.387 317.839 139.324 312.777 139.324 306.532C136.939 310.253 133.599 313.259 129.305 315.549C125.107 317.839 120.192 318.984 114.562 318.984C108.074 318.984 102.157 317.314 96.8138 313.974C91.4701 310.539 87.2238 305.72 84.0749 299.518C81.0213 293.22 79.4946 285.968 79.4946 277.762ZM139.324 277.905C139.324 271.798 137.607 266.979 134.172 263.448C130.832 259.918 126.729 258.152 121.862 258.152C116.996 258.152 112.845 259.918 109.41 263.448C106.07 266.883 104.4 271.655 104.4 277.762C104.4 283.869 106.07 288.735 109.41 292.361C112.845 295.892 116.996 297.657 121.862 297.657C126.729 297.657 130.832 295.892 134.172 292.361C137.607 288.831 139.324 284.012 139.324 277.905Z" fill="black"/>
<path d="M225.927 297.085C225.98 297.085 226.022 297.127 226.022 297.18V302.432C226.022 310.941 219.124 317.839 210.615 317.839C201.741 317.839 197.777 315.692 192.815 311.398C187.853 307.009 185.372 299.9 185.372 290.071V258.295H177.639C176.534 258.295 175.639 257.4 175.639 256.295V239.97C175.639 238.866 176.534 237.97 177.639 237.97H185.372C185.372 227.22 194.087 218.504 204.838 218.504H209.74C209.8 218.504 209.848 218.553 209.848 218.612V237.97H223.879C224.984 237.97 225.879 238.866 225.879 239.97V256.295C225.879 257.4 224.984 258.295 223.879 258.295H209.848V290.357C209.848 292.743 210.421 294.461 211.566 295.51C212.711 296.56 214.619 297.085 217.291 297.085H225.927Z" fill="black"/>
<path d="M262.557 297.657H297.06C297.135 297.657 297.195 297.718 297.195 297.792C297.195 308.864 288.22 317.839 277.148 317.839H235.633C235.404 317.839 235.218 317.653 235.218 317.425V306.641C235.218 301.296 237.08 296.119 240.482 291.997L268.425 258.152H235.704C235.594 258.152 235.505 258.063 235.505 257.954C235.505 246.917 244.451 237.97 255.488 237.97H295.879C296.211 237.97 296.48 238.239 296.48 238.571V249.032C296.48 254.46 294.56 259.712 291.061 263.861L262.557 297.657Z" fill="black"/>
<path d="M385.952 276.617C385.952 280.705 382.437 283.773 378.349 283.773H330.129C330.511 288.735 332.086 292.552 334.853 295.224C337.716 297.8 341.198 299.089 345.302 299.089C350.455 299.089 354.284 297.254 356.787 293.584C357.666 292.296 359.038 291.359 360.597 291.359H381.518C382.823 291.359 383.779 292.59 383.369 293.828C381.952 298.1 379.759 302 376.791 305.53C373.356 309.728 369.014 313.02 363.766 315.406C358.518 317.791 352.649 318.984 346.16 318.984C338.336 318.984 331.37 317.314 325.263 313.974C319.156 310.635 314.385 305.864 310.95 299.661C307.514 293.459 305.797 286.207 305.797 277.905C305.797 269.603 307.467 262.351 310.806 256.148C314.242 249.946 319.013 245.175 325.12 241.835C331.227 238.495 338.24 236.825 346.16 236.825C353.89 236.825 360.76 238.448 366.772 241.692C372.783 244.936 377.459 249.564 380.799 255.576C384.234 261.588 385.952 268.601 385.952 276.617ZM360.903 270.176C360.903 265.977 359.472 262.637 356.609 260.156C353.746 257.675 350.168 256.435 345.874 256.435C341.771 256.435 338.288 257.628 335.425 260.013C332.658 262.399 330.941 265.786 330.273 270.176H360.903Z" fill="black"/>
<path d="M445.47 237.112C454.821 237.112 462.264 240.165 467.799 246.272C473.429 252.284 476.244 260.586 476.244 271.178V317.698C476.244 317.776 476.18 317.839 476.102 317.839C462.742 317.839 451.911 307.008 451.911 293.648V274.47C451.911 269.126 450.527 264.975 447.76 262.017C444.993 259.059 441.271 257.58 436.595 257.58C431.92 257.58 428.198 259.059 425.431 262.017C422.664 264.975 421.28 269.126 421.28 274.47V317.697C421.28 317.775 421.216 317.839 421.138 317.839C407.699 317.839 396.804 306.945 396.804 293.506V238.435C396.804 238.178 397.012 237.97 397.269 237.97H419.28C420.385 237.97 421.28 238.866 421.28 239.97V248.562C423.761 245.032 427.101 242.264 431.3 240.261C435.498 238.161 440.222 237.112 445.47 237.112Z" fill="black"/>
<path d="M268.504 366.21C268.504 364.546 268.154 363.1 267.453 361.874C266.782 360.648 265.892 359.714 264.782 359.072C263.673 358.429 262.476 358.108 261.191 358.108C259.907 358.108 258.71 358.429 257.601 359.072C256.491 359.685 255.586 360.604 254.886 361.831C254.214 363.027 253.878 364.458 253.878 366.122C253.878 367.786 254.214 369.246 254.886 370.501C255.586 371.756 256.491 372.72 257.601 373.391C258.739 374.033 259.936 374.355 261.191 374.355C262.476 374.355 263.673 374.033 264.782 373.391C265.892 372.749 266.782 371.815 267.453 370.589C268.154 369.333 268.504 367.874 268.504 366.21Z" fill="black"/>
<path fill-rule="evenodd" clip-rule="evenodd" d="M183.548 396.97C166.427 396.97 152.548 383.091 152.548 365.97V329.846H292.696C309.817 329.846 323.696 343.725 323.696 360.846V365.97C323.696 383.09 309.817 396.97 292.696 396.97H183.548ZM239.366 354.955C237.935 354.167 236.3 353.773 234.461 353.773C232.914 353.773 231.483 354.05 230.17 354.605C228.885 355.16 227.82 355.948 226.973 356.97V345.891H221.981V378.296H226.973V364.808C226.973 362.648 227.513 360.999 228.593 359.86C229.703 358.692 231.192 358.108 233.06 358.108C234.928 358.108 236.403 358.692 237.483 359.86C238.563 360.999 239.103 362.648 239.103 364.808V378.296H244.051V364.064C244.051 361.874 243.628 360.006 242.781 358.459C241.964 356.911 240.825 355.744 239.366 354.955ZM194.06 366.21C194.06 363.728 194.556 361.553 195.549 359.685C196.571 357.787 197.972 356.328 199.753 355.306C201.533 354.284 203.577 353.773 205.883 353.773C208.803 353.773 211.211 354.474 213.109 355.875C215.035 357.247 216.335 359.218 217.006 361.787H211.62C211.182 360.59 210.481 359.656 209.518 358.984C208.554 358.313 207.343 357.977 205.883 357.977C203.84 357.977 202.205 358.707 200.979 360.166C199.782 361.597 199.183 363.611 199.183 366.21C199.183 368.808 199.782 370.837 200.979 372.296C202.205 373.756 203.84 374.486 205.883 374.486C208.773 374.486 210.686 373.216 211.62 370.676H217.006C216.305 373.128 214.992 375.084 213.065 376.544C211.138 377.975 208.744 378.69 205.883 378.69C203.577 378.69 201.533 378.179 199.753 377.157C197.972 376.106 196.571 374.646 195.549 372.778C194.556 370.88 194.06 368.691 194.06 366.21ZM190.103 372.515V378.296H184.454V372.515H190.103ZM248.755 366.122C248.755 363.699 249.251 361.553 250.244 359.685C251.266 357.816 252.638 356.371 254.36 355.35C256.112 354.299 258.038 353.773 260.14 353.773C262.038 353.773 263.687 354.153 265.089 354.912C266.519 355.641 267.658 356.561 268.504 357.67V354.167H273.54V378.296H268.504V374.705C267.658 375.843 266.505 376.792 265.045 377.551C263.585 378.31 261.921 378.69 260.053 378.69C257.98 378.69 256.083 378.164 254.36 377.113C252.638 376.033 251.266 374.544 250.244 372.647C249.251 370.72 248.755 368.545 248.755 366.122ZM285.921 371.596V358.24H291.789V354.167H285.921V348.168H280.885V354.167H278.039V358.24H280.885V371.596C280.885 373.96 281.484 375.668 282.681 376.719C283.878 377.77 285.6 378.296 287.848 378.296H291.789V374.136H288.724C287.702 374.136 286.972 373.946 286.534 373.566C286.126 373.158 285.921 372.501 285.921 371.596Z" fill="black"/>
<path fill-rule="evenodd" clip-rule="evenodd" d="M252.817 19.3961H218.752L198.273 0.179688C193.937 4.80072 191.614 10.955 191.815 17.2886C192.017 23.6223 194.726 29.6165 199.347 33.9525C200.873 35.3842 201.14 37.8375 199.796 39.4409C193.969 46.3934 189.973 54.9339 188.553 64.3193C198.595 64.3193 206.139 72.0172 206.139 81.5182C206.139 86.9864 198.449 96.777 198.449 96.777C191.815 103.799 185.261 119.894 206.139 143.568C213.509 151.925 214.879 158.175 214.906 165.505C214.923 169.909 213.872 176.021 213.03 180.199C220.512 182.176 228.369 183.229 236.472 183.229C266.727 183.229 293.553 168.549 310.216 145.923L309.395 174.511C309.395 189.172 321.28 201.058 335.942 201.058C349.961 201.058 361.442 190.192 362.422 176.422C360.153 178.754 356.981 180.202 353.47 180.202C346.573 180.202 340.981 174.61 340.981 167.713L340.981 133.711C340.981 122.005 335.765 111.074 327.253 103.425C322.974 99.5794 317.861 96.5634 312.159 94.6955C307.725 93.2426 302.933 92.4843 297.901 92.5702H294.016C289.292 92.7697 283.635 93.8087 279.258 95.6441C274.363 97.6969 268.455 101.706 264.708 105.499C264.537 105.672 264.351 105.859 264.152 106.058C260.678 109.544 253.193 117.053 248.781 129.903C248.504 130.71 247.97 130.374 248.1 129.747C248.858 126.078 249.852 121.996 250.952 119.308C253.385 113.359 256.953 107.953 261.45 103.4C265.316 99.4859 269.804 96.2676 274.72 93.8758C275.429 93.5306 275.336 92.4067 274.588 92.154C269.449 90.4164 265.43 87.0057 265.43 81.5182C265.43 72.5413 272.306 65.1703 281.078 64.3845C279.795 55.8301 276.373 47.9756 271.374 41.383C269.686 39.1568 270.185 35.8643 272.222 33.9525C276.843 29.6165 279.552 23.6223 279.754 17.2886C279.955 10.955 277.633 4.80072 273.296 0.179688L252.817 19.3961ZM212.767 36.3349C212.63 39.9951 215.546 43.2149 220.291 44.4047C226.008 45.8383 229.328 41.0196 229.328 41.0196C229.328 41.0196 222.926 31.9961 212.767 36.3349ZM251.106 44.4047C255.851 43.2149 258.766 39.9951 258.63 36.3349C248.471 31.9961 242.068 41.0196 242.068 41.0196C242.068 41.0196 245.388 45.8383 251.106 44.4047ZM287.759 15.8887C287.77 16.4389 287.767 16.9908 287.75 17.5436C287.647 20.7799 287.053 23.9498 286.014 26.9545C304.617 41.2094 316.898 63.3001 317.927 88.2944C321.517 89.7533 324.882 91.6046 327.973 93.7853C327.989 93.0936 327.997 92.3999 327.997 91.7045C327.997 60.162 312.04 32.3463 287.759 15.8887ZM206.826 167.671C206.608 170.746 205.983 174.559 205.35 177.802C170.123 165.066 144.947 131.325 144.947 91.7045C144.947 60.7636 160.301 33.4086 183.805 16.8427C183.807 17.0761 183.812 17.3097 183.819 17.5435C183.932 21.0817 184.631 24.5405 185.857 27.7909C167.026 42.7241 154.947 65.8038 154.947 91.7045C154.947 126.27 176.459 155.812 206.826 167.671Z" fill="black"/>
</svg>
