<svg width="477" height="398" viewBox="0 0 477 398" fill="none" xmlns="http://www.w3.org/2000/svg">
<path d="M52.8849 317.96C50.324 317.96 47.9179 316.734 46.4127 314.662L24.4759 284.467V315.96C24.4759 317.065 23.5804 317.96 22.4759 317.96H2C0.895432 317.96 0 317.065 0 315.96V235.948C0 222.745 10.7034 212.041 23.9067 212.041C24.221 212.041 24.4759 212.296 24.4759 212.611V270.583L46.2662 241.314C47.7759 239.287 50.1551 238.092 52.6831 238.092H74.6122C76.3052 238.092 77.2324 240.064 76.1522 241.368L45.6596 278.169L76.3854 314.672C77.4803 315.973 76.5556 317.96 74.8553 317.96H52.8849Z" fill="black"/>
<path d="M79.4946 277.883C79.4946 269.676 81.0213 262.472 84.0749 256.27C87.2238 250.067 91.4701 245.296 96.8138 241.956C102.157 238.616 108.121 236.947 114.705 236.947C120.335 236.947 125.25 238.092 129.448 240.382C133.742 242.672 137.034 245.678 139.324 249.399C139.324 243.154 144.387 238.092 150.632 238.092H163.663C163.739 238.092 163.8 238.153 163.8 238.229V317.823C163.8 317.899 163.739 317.96 163.663 317.96H150.632C144.387 317.96 139.324 312.898 139.324 306.653C136.939 310.374 133.599 313.38 129.305 315.67C125.107 317.96 120.192 319.105 114.562 319.105C108.074 319.105 102.157 317.435 96.8138 314.096C91.4701 310.66 87.2238 305.842 84.0749 299.639C81.0213 293.341 79.4946 286.089 79.4946 277.883ZM139.324 278.026C139.324 271.919 137.607 267.1 134.172 263.569C130.832 260.039 126.729 258.273 121.862 258.273C116.996 258.273 112.845 260.039 109.41 263.569C106.07 267.005 104.4 271.776 104.4 277.883C104.4 283.99 106.07 288.856 109.41 292.482C112.845 296.013 116.996 297.778 121.862 297.778C126.729 297.778 130.832 296.013 134.172 292.482C137.607 288.952 139.324 284.133 139.324 278.026Z" fill="black"/>
<path d="M225.927 297.206C225.98 297.206 226.022 297.248 226.022 297.301V302.553C226.022 311.062 219.124 317.96 210.615 317.96C201.741 317.96 197.777 315.813 192.815 311.519C187.853 307.13 185.372 300.021 185.372 290.192V258.417H177.639C176.534 258.417 175.639 257.521 175.639 256.417V240.092C175.639 238.987 176.534 238.092 177.639 238.092H185.372C185.372 227.341 194.087 218.625 204.838 218.625H209.74C209.8 218.625 209.848 218.674 209.848 218.734V238.092H223.879C224.984 238.092 225.879 238.987 225.879 240.092V256.417C225.879 257.521 224.984 258.417 223.879 258.417H209.848V290.479C209.848 292.864 210.421 294.582 211.566 295.631C212.711 296.681 214.619 297.206 217.291 297.206H225.927Z" fill="black"/>
<path d="M262.557 297.778H297.06C297.135 297.778 297.195 297.839 297.195 297.913C297.195 308.985 288.22 317.96 277.148 317.96H235.633C235.404 317.96 235.218 317.775 235.218 317.546V306.762C235.218 301.417 237.08 296.24 240.482 292.118L268.425 258.273H235.704C235.594 258.273 235.505 258.184 235.505 258.075C235.505 247.038 244.451 238.092 255.488 238.092H295.879C296.211 238.092 296.48 238.361 296.48 238.692V249.154C296.48 254.581 294.56 259.833 291.061 263.982L262.557 297.778Z" fill="black"/>
<path d="M385.952 276.738C385.952 280.826 382.437 283.894 378.349 283.894H330.129C330.511 288.856 332.086 292.673 334.853 295.345C337.716 297.922 341.198 299.21 345.302 299.21C350.455 299.21 354.284 297.375 356.787 293.705C357.666 292.418 359.038 291.481 360.597 291.481H381.518C382.823 291.481 383.779 292.711 383.369 293.949C381.952 298.221 379.759 302.121 376.791 305.651C373.356 309.849 369.014 313.141 363.766 315.527C358.518 317.913 352.649 319.105 346.16 319.105C338.336 319.105 331.37 317.435 325.263 314.096C319.156 310.756 314.385 305.985 310.95 299.782C307.514 293.58 305.797 286.328 305.797 278.026C305.797 269.724 307.467 262.472 310.806 256.27C314.242 250.067 319.013 245.296 325.12 241.956C331.227 238.616 338.24 236.947 346.16 236.947C353.89 236.947 360.76 238.569 366.772 241.813C372.783 245.057 377.459 249.685 380.799 255.697C384.234 261.709 385.952 268.722 385.952 276.738ZM360.903 270.297C360.903 266.098 359.472 262.758 356.609 260.277C353.746 257.796 350.168 256.556 345.874 256.556C341.771 256.556 338.288 257.749 335.425 260.134C332.658 262.52 330.941 265.907 330.273 270.297H360.903Z" fill="black"/>
<path d="M445.47 237.233C454.821 237.233 462.264 240.286 467.799 246.393C473.429 252.405 476.244 260.707 476.244 271.299V317.819C476.244 317.897 476.18 317.96 476.102 317.96C462.742 317.96 451.911 307.129 451.911 293.769V274.591C451.911 269.247 450.527 265.096 447.76 262.138C444.993 259.18 441.271 257.701 436.595 257.701C431.92 257.701 428.198 259.18 425.431 262.138C422.664 265.096 421.28 269.247 421.28 274.591V317.818C421.28 317.897 421.216 317.96 421.138 317.96C407.699 317.96 396.804 307.066 396.804 293.627V238.556C396.804 238.3 397.012 238.092 397.269 238.092H419.28C420.385 238.092 421.28 238.987 421.28 240.092V248.684C423.761 245.153 427.101 242.386 431.3 240.382C435.498 238.282 440.222 237.233 445.47 237.233Z" fill="black"/>
<circle opacity="0.2" cx="236.472" cy="91.8256" r="91.5246" fill="black"/>
<path d="M268.504 366.331C268.504 364.667 268.154 363.222 267.453 361.995C266.782 360.769 265.892 359.835 264.782 359.193C263.673 358.551 262.476 358.229 261.191 358.229C259.907 358.229 258.71 358.551 257.601 359.193C256.491 359.806 255.586 360.726 254.886 361.952C254.214 363.149 253.878 364.579 253.878 366.243C253.878 367.907 254.214 369.367 254.886 370.622C255.586 371.877 256.491 372.841 257.601 373.512C258.739 374.155 259.936 374.476 261.191 374.476C262.476 374.476 263.673 374.155 264.782 373.512C265.892 372.87 266.782 371.936 267.453 370.71C268.154 369.454 268.504 367.995 268.504 366.331Z" fill="black"/>
<path fill-rule="evenodd" clip-rule="evenodd" d="M183.548 397.091C166.427 397.091 152.548 383.212 152.548 366.091V329.967H292.696C309.817 329.967 323.696 343.846 323.696 360.967V366.091C323.696 383.212 309.817 397.091 292.696 397.091H183.548ZM239.366 355.077C237.935 354.288 236.3 353.894 234.461 353.894C232.914 353.894 231.483 354.172 230.17 354.726C228.885 355.281 227.82 356.069 226.973 357.091V346.012H221.981V378.417H226.973V364.929C226.973 362.769 227.513 361.12 228.593 359.981C229.703 358.813 231.192 358.229 233.06 358.229C234.928 358.229 236.403 358.813 237.483 359.981C238.563 361.12 239.103 362.769 239.103 364.929V378.417H244.051V364.185C244.051 361.995 243.628 360.127 242.781 358.58C241.964 357.033 240.825 355.865 239.366 355.077ZM194.06 366.331C194.06 363.849 194.556 361.674 195.549 359.806C196.571 357.908 197.972 356.449 199.753 355.427C201.533 354.405 203.577 353.894 205.883 353.894C208.803 353.894 211.211 354.595 213.109 355.996C215.035 357.368 216.335 359.339 217.006 361.908H211.62C211.182 360.711 210.481 359.777 209.518 359.105C208.554 358.434 207.343 358.098 205.883 358.098C203.84 358.098 202.205 358.828 200.979 360.288C199.782 361.718 199.183 363.732 199.183 366.331C199.183 368.929 199.782 370.958 200.979 372.418C202.205 373.877 203.84 374.607 205.883 374.607C208.773 374.607 210.686 373.337 211.62 370.797H217.006C216.305 373.25 214.992 375.206 213.065 376.665C211.138 378.096 208.744 378.811 205.883 378.811C203.577 378.811 201.533 378.3 199.753 377.278C197.972 376.227 196.571 374.768 195.549 372.899C194.556 371.002 194.06 368.812 194.06 366.331ZM190.103 372.636V378.417H184.454V372.636H190.103ZM248.755 366.243C248.755 363.82 249.251 361.674 250.244 359.806C251.266 357.938 252.638 356.492 254.36 355.471C256.112 354.42 258.038 353.894 260.14 353.894C262.038 353.894 263.687 354.274 265.089 355.033C266.519 355.763 267.658 356.682 268.504 357.792V354.288H273.54V378.417H268.504V374.826C267.658 375.965 266.505 376.913 265.045 377.672C263.585 378.431 261.921 378.811 260.053 378.811C257.98 378.811 256.083 378.285 254.36 377.234C252.638 376.154 251.266 374.665 250.244 372.768C249.251 370.841 248.755 368.666 248.755 366.243ZM285.921 371.717V358.361H291.789V354.288H285.921V348.289H280.885V354.288H278.039V358.361H280.885V371.717C280.885 374.082 281.484 375.789 282.681 376.84C283.878 377.891 285.6 378.417 287.848 378.417H291.789V374.257H288.724C287.702 374.257 286.972 374.067 286.534 373.687C286.126 373.279 285.921 372.622 285.921 371.717Z" fill="black"/>
<path fill-rule="evenodd" clip-rule="evenodd" d="M218.752 19.5174H252.817L273.296 0.300964C277.633 4.922 279.955 11.0763 279.754 17.4099C279.552 23.7435 276.843 29.7377 272.222 34.0738C270.185 35.9856 269.686 39.2781 271.374 41.5043C276.373 48.0969 279.795 55.9514 281.078 64.5057C272.306 65.2916 265.43 72.6625 265.43 81.6395C265.43 87.127 269.449 90.5377 274.588 92.2753C275.336 92.528 275.429 93.6519 274.72 93.9971C269.804 96.3889 265.316 99.6072 261.45 103.521C256.953 108.075 253.385 113.48 250.952 119.43C249.852 122.117 248.858 126.199 248.1 129.868C247.97 130.495 248.504 130.831 248.781 130.024C253.193 117.174 260.678 109.665 264.152 106.18C264.351 105.98 264.537 105.794 264.708 105.62C268.455 101.827 274.363 97.8182 279.258 95.7654C283.635 93.9299 289.292 92.8909 294.016 92.6915H297.901C302.933 92.6055 307.725 93.3639 312.159 94.8168C317.861 96.6847 322.974 99.7007 327.253 103.546C335.765 111.195 340.981 122.126 340.981 133.832L340.981 167.834C340.981 174.732 346.573 180.323 353.47 180.323C356.981 180.323 360.153 178.875 362.422 176.543C361.442 190.313 349.961 201.179 335.942 201.179C321.28 201.179 309.395 189.294 309.395 174.632L310.216 146.044C293.553 168.67 266.727 183.35 236.472 183.35C228.369 183.35 220.512 182.297 213.03 180.321C213.872 176.143 214.923 170.03 214.906 165.626C214.879 158.296 213.509 152.047 206.139 143.69C185.261 120.015 191.815 103.92 198.449 96.8983C198.449 96.8983 206.139 87.1077 206.139 81.6395C206.139 72.1385 198.595 64.4406 188.553 64.4406C189.973 55.0552 193.969 46.5147 199.796 39.5621C201.14 37.9587 200.873 35.5054 199.347 34.0738C194.726 29.7377 192.017 23.7435 191.815 17.4099C191.614 11.0763 193.937 4.922 198.273 0.300964L218.752 19.5174ZM220.291 44.526C215.546 43.3362 212.63 40.1164 212.767 36.4562C222.926 32.1174 229.328 41.1409 229.328 41.1409C229.328 41.1409 226.008 45.9596 220.291 44.526ZM258.63 36.4562C258.766 40.1164 255.851 43.3362 251.106 44.526C245.388 45.9596 242.068 41.1409 242.068 41.1409C242.068 41.1409 248.471 32.1174 258.63 36.4562Z" fill="black"/>
</svg>
