<?xml version="1.0" encoding="UTF-8" standalone="no"?>
<!-- Created with Inkscape (http://www.inkscape.org/) -->

<svg
   width="256"
   height="256"
   viewBox="0 0 67.733332 67.733334"
   version="1.1"
   id="svg2105"
   inkscape:version="1.2.1 (9c6d41e, 2022-07-14)"
   sodipodi:docname="anonkat.svg"
   xmlns:inkscape="http://www.inkscape.org/namespaces/inkscape"
   xmlns:sodipodi="http://sodipodi.sourceforge.net/DTD/sodipodi-0.dtd"
   xmlns="http://www.w3.org/2000/svg"
   xmlns:svg="http://www.w3.org/2000/svg">
  <sodipodi:namedview
     id="namedview2107"
     pagecolor="#ffffff"
     bordercolor="#111111"
     borderopacity="1"
     inkscape:showpageshadow="0"
     inkscape:pageopacity="0"
     inkscape:pagecheckerboard="1"
     inkscape:deskcolor="#d1d1d1"
     inkscape:document-units="mm"
     showgrid="false"
     inkscape:zoom="1.1880445"
     inkscape:cx="-22.726421"
     inkscape:cy="-3.7877368"
     inkscape:window-width="1918"
     inkscape:window-height="1168"
     inkscape:window-x="0"
     inkscape:window-y="0"
     inkscape:window-maximized="1"
     inkscape:current-layer="layer1" />
  <defs
     id="defs2102" />
  <g
     inkscape:label="Layer 1"
     inkscape:groupmode="layer"
     id="layer1">
    <path
       id="circle666-5-6-6"
       style="display:inline;opacity:1;fill:#cccccc;fill-opacity:1;stroke-width:0.352335"
       d="M 66.312233,33.809799 A 32.247455,32.247455 0 0 1 34.064767,66.057269 32.247455,32.247455 0 0 1 1.8173131,33.809799 32.247455,32.247455 0 0 1 34.064767,1.5623393 32.247455,32.247455 0 0 1 66.312233,33.809799 Z" />
    <path
       id="circle666-5-6-6-3"
       style="display:inline;fill:#808080;fill-opacity:1;stroke-width:0.352335"
       d="m 22.7333,3.2212918 a 32.247455,32.247455 0 0 0 -3.957451,1.7811746 c -0.205299,0.7796878 -0.30022,1.591353 -0.274126,2.4117932 0.07107,2.2315606 1.025652,4.3434134 2.653744,5.8711844 0.537512,0.504402 0.631798,1.368728 0.158298,1.933681 -2.053369,2.449617 -3.461567,5.45876 -3.961954,8.765592 3.538375,0 6.196144,2.711557 6.196144,6.059083 0,1.92653 -2.709084,5.376342 -2.709084,5.376342 -2.337363,2.474119 -4.647039,8.144965 2.709084,16.486161 2.596679,2.944384 3.080695,5.146952 3.090029,7.729577 0.0052,1.512544 -0.345946,3.587289 -0.63834,5.054598 a 32.247455,32.247455 0 0 0 7.916189,1.006414 32.247455,32.247455 0 0 0 31.991646,-28.201502 c -1.442246,-1.225997 -3.131668,-2.194537 -5.004405,-2.80818 -1.562509,-0.511863 -3.249769,-0.77925 -5.023067,-0.749021 h -1.368699 c -1.664793,0.07035 -3.658491,0.436944 -5.200669,1.083634 -1.724686,0.72327 -3.80618,2.13521 -5.126026,3.471618 -0.06063,0.06099 -0.126242,0.126885 -0.196263,0.196906 -1.22403,1.228256 -3.861095,3.874607 -5.415595,8.402022 -0.09758,0.284295 -0.285842,0.166278 -0.240021,-0.0547 0.267413,-1.292639 0.617559,-2.731731 1.005128,-3.67882 0.857587,-2.096043 2.113952,-4.000589 3.698768,-5.604781 1.36167,-1.379048 2.943598,-2.513695 4.675584,-3.356432 0.249841,-0.121621 0.216674,-0.517087 -0.04697,-0.606166 -1.810668,-0.61222 -3.226448,-1.814338 -3.226448,-3.747674 0,-3.1629 2.423098,-5.75969 5.514048,-6.036561 -0.452039,-3.014016 -1.658164,-5.780594 -3.419494,-8.103443 -0.594736,-0.78433 -0.419124,-1.944774 0.298577,-2.618352 1.628146,-1.527772 2.582911,-3.6396241 2.653746,-5.8711846 0.0253,-0.7964087 -0.06429,-1.5842763 -0.257396,-2.3429397 A 32.247455,32.247455 0 0 0 45.223203,3.2502482 L 39.99422,8.1568447 H 27.992526 Z m 4.806211,10.6111172 c 2.47845,-0.03289 3.967103,2.066239 3.967103,2.066239 0,0 -0.385133,0.556676 -1.091999,0.937563 a 1.3712061,1.219989 0 0 0 0.08944,-0.434998 1.3712061,1.219989 0 0 0 -1.370629,-1.219411 1.3712061,1.219989 0 0 0 -1.371917,1.219411 1.3712061,1.219989 0 0 0 0.159586,0.5682 c -1.431728,-0.489836 -2.2936,-1.53903 -2.249635,-2.721312 0.671174,-0.286644 1.296097,-0.408109 1.868045,-0.415692 z m 12.423822,0 c 0.571931,0.0088 1.196262,0.1291 1.867401,0.415692 0.02439,0.654917 -0.229531,1.268804 -0.703331,1.770236 a 1.420817,1.2641288 0 0 0 -1.402161,-1.063042 1.420817,1.2641288 0 0 0 -1.421465,1.264453 1.420817,1.2641288 0 0 0 0.48133,0.942711 c -1.771637,0.211232 -2.788878,-1.263811 -2.788878,-1.263811 0,0 1.488743,-2.099155 3.967104,-2.066239 z m -14.724935,5.727042 5.53464,0.59587 -0.09395,0.875143 -5.53464,-0.595226 z m 17.54663,0.08301 0.09459,0.87643 -5.535284,0.594583 -0.09395,-0.875144 z m -8.822864,0.370649 a 2.2913158,1.507323 0 0 1 2.291461,1.507692 2.2913158,1.507323 0 0 1 -2.291461,1.507049 2.2913158,1.507323 0 0 1 -2.290817,-1.507049 2.2913158,1.507323 0 0 1 2.290817,-1.507692 z m -3.149873,1.845523 0.211063,0.855839 -5.40401,1.33395 -0.211065,-0.855195 z m 6.394982,0.184038 5.404656,1.334594 -0.211064,0.853908 -5.404655,-1.33395 z" />
  </g>
</svg>
