<svg width="719" height="203" viewBox="0 0 719 203" fill="none" xmlns="http://www.w3.org/2000/svg">
<path d="M295.065 106.797C292.504 106.797 290.098 105.571 288.592 103.499L266.656 73.304V104.797C266.656 105.902 265.76 106.797 264.656 106.797H244.18C243.075 106.797 242.18 105.902 242.18 104.797V24.785C242.18 11.5817 252.883 0.878357 266.086 0.878357C266.401 0.878357 266.656 1.1332 266.656 1.44756V59.42L288.446 30.1513C289.956 28.1236 292.335 26.9287 294.863 26.9287H316.792C318.485 26.9287 319.412 28.901 318.332 30.2047L287.839 67.0061L318.565 103.509C319.66 104.81 318.735 106.797 317.035 106.797H295.065Z" fill="#000584"/>
<path d="M321.674 66.7198C321.674 58.5135 323.201 51.3091 326.255 45.1067C329.403 38.9042 333.65 34.1331 338.993 30.7933C344.337 27.4535 350.301 25.7836 356.885 25.7836C362.515 25.7836 367.429 26.9287 371.628 29.2188C375.922 31.509 379.214 34.5148 381.504 38.2362C381.504 31.9912 386.567 26.9287 392.812 26.9287H405.843C405.919 26.9287 405.98 26.9901 405.98 27.0658V106.66C405.98 106.736 405.919 106.797 405.843 106.797H392.812C386.567 106.797 381.504 101.735 381.504 95.4897C379.119 99.2112 375.779 102.217 371.485 104.507C367.286 106.797 362.372 107.942 356.742 107.942C350.253 107.942 344.337 106.272 338.993 102.933C333.65 99.4975 329.403 94.6786 326.255 88.4762C323.201 82.1783 321.674 74.9262 321.674 66.7198ZM381.504 66.863C381.504 60.7559 379.787 55.9371 376.351 52.4065C373.012 48.8758 368.908 47.1105 364.042 47.1105C359.175 47.1105 355.024 48.8758 351.589 52.4065C348.249 55.8417 346.58 60.6128 346.58 66.7198C346.58 72.8269 348.249 77.6934 351.589 81.3195C355.024 84.8501 359.175 86.6154 364.042 86.6154C368.908 86.6154 373.012 84.8501 376.351 81.3195C379.787 77.7888 381.504 72.97 381.504 66.863Z" fill="#000584"/>
<path d="M468.107 86.0429C468.159 86.0429 468.202 86.0854 468.202 86.1379V91.3904C468.202 99.8994 461.304 106.797 452.795 106.797C443.921 106.797 439.957 104.65 434.995 100.356C430.033 95.9668 427.552 88.8578 427.552 79.0293V47.2537H419.819C418.714 47.2537 417.819 46.3582 417.819 45.2537V28.9287C417.819 27.8241 418.714 26.9287 419.819 26.9287H427.552C427.552 16.1778 436.267 7.46251 447.018 7.46251H451.92C451.979 7.46251 452.028 7.51089 452.028 7.57057V26.9287H466.059C467.163 26.9287 468.059 27.8241 468.059 28.9287V45.2537C468.059 46.3582 467.163 47.2537 466.059 47.2537H452.028V79.3156C452.028 81.7012 452.6 83.4188 453.745 84.4684C454.89 85.5181 456.799 86.0429 459.471 86.0429H468.107Z" fill="#000584"/>
<path d="M504.737 86.6154H539.24C539.315 86.6154 539.375 86.6759 539.375 86.7504C539.375 97.822 530.4 106.797 519.328 106.797H477.813C477.584 106.797 477.398 106.612 477.398 106.383V95.5989C477.398 90.2544 479.259 85.0768 482.662 80.9555L510.605 47.1105H477.883C477.773 47.1105 477.684 47.0215 477.684 46.9117C477.684 35.8754 486.631 26.9287 497.667 26.9287H538.059C538.39 26.9287 538.659 27.1976 538.659 27.5294V37.9906C538.659 43.418 536.74 48.6705 533.241 52.8192L504.737 86.6154Z" fill="#000584"/>
<path d="M628.131 65.5748C628.131 69.6631 624.617 72.7315 620.528 72.7315H572.309C572.691 77.6934 574.265 81.5103 577.033 84.1822C579.895 86.7586 583.378 88.0468 587.481 88.0468C592.635 88.0468 596.464 86.2119 598.967 82.5421C599.845 81.2547 601.218 80.3175 602.776 80.3175H623.698C625.002 80.3175 625.959 81.5482 625.548 82.7865C624.131 87.0578 621.939 90.9582 618.971 94.4878C615.536 98.6864 611.194 101.978 605.946 104.364C600.697 106.75 594.829 107.942 588.34 107.942C580.515 107.942 573.55 106.272 567.443 102.933C561.336 99.5929 556.564 94.8217 553.129 88.6193C549.694 82.4168 547.976 75.1647 547.976 66.863C547.976 58.5612 549.646 51.3091 552.986 45.1067C556.421 38.9042 561.192 34.1331 567.299 30.7933C573.406 27.4535 580.42 25.7836 588.34 25.7836C596.069 25.7836 602.94 27.4058 608.951 30.6502C614.963 33.8945 619.639 38.5225 622.978 44.5341C626.414 50.5457 628.131 57.5593 628.131 65.5748ZM603.083 59.1338C603.083 54.9352 601.652 51.5954 598.789 49.1144C595.926 46.6334 592.348 45.3929 588.054 45.3929C583.951 45.3929 580.468 46.5857 577.605 48.9713C574.838 51.3568 573.12 54.7443 572.452 59.1338H603.083Z" fill="#000584"/>
<path d="M687.649 26.0699C697.001 26.0699 704.444 29.1234 709.978 35.2304C715.608 41.2421 718.423 49.5438 718.423 60.1357V106.656C718.423 106.734 718.36 106.797 718.282 106.797C704.921 106.797 694.09 95.9665 694.09 82.606V63.4278C694.09 58.0841 692.707 53.9332 689.94 50.9751C687.172 48.017 683.451 46.538 678.775 46.538C674.099 46.538 670.378 48.017 667.611 50.9751C664.843 53.9332 663.46 58.0841 663.46 63.4278V106.655C663.46 106.734 663.396 106.797 663.318 106.797C649.879 106.797 638.984 95.9027 638.984 82.4637V27.393C638.984 27.1366 639.192 26.9287 639.448 26.9287H661.46C662.564 26.9287 663.46 27.8241 663.46 28.9287V37.5206C665.941 33.9899 669.281 31.2227 673.479 29.2188C677.678 27.1195 682.401 26.0699 687.649 26.0699Z" fill="#000584"/>
<circle cx="92.1672" cy="93.403" r="91.5246" fill="url(#paint0_linear_212_93)"/>
<path d="M242.18 154.928C242.18 172.049 256.059 185.928 273.18 185.928H382.328C399.449 185.928 413.328 172.049 413.328 154.928V149.804C413.328 132.683 399.449 118.804 382.328 118.804H242.18V154.928Z" fill="#66C8FF"/>
<path d="M276.389 161.474V167.254H270.74V161.474H276.389Z" fill="#000584"/>
<path d="M280.346 155.168C280.346 152.686 280.842 150.511 281.835 148.643C282.856 146.745 284.258 145.286 286.038 144.264C287.819 143.242 289.863 142.731 292.169 142.731C295.088 142.731 297.497 143.432 299.394 144.833C301.321 146.205 302.62 148.176 303.292 150.745H297.906C297.468 149.548 296.767 148.614 295.804 147.942C294.84 147.271 293.629 146.935 292.169 146.935C290.126 146.935 288.491 147.665 287.265 149.125C286.068 150.555 285.469 152.57 285.469 155.168C285.469 157.766 286.068 159.795 287.265 161.255C288.491 162.714 290.126 163.444 292.169 163.444C295.059 163.444 296.971 162.174 297.906 159.634H303.292C302.591 162.087 301.277 164.043 299.351 165.502C297.424 166.933 295.03 167.648 292.169 167.648C289.863 167.648 287.819 167.137 286.038 166.115C284.258 165.064 282.856 163.605 281.835 161.736C280.842 159.839 280.346 157.649 280.346 155.168Z" fill="#000584"/>
<path d="M320.747 142.731C322.586 142.731 324.221 143.125 325.651 143.914C327.111 144.702 328.25 145.87 329.067 147.417C329.914 148.964 330.337 150.832 330.337 153.022V167.254H325.389V153.766C325.389 151.606 324.849 149.957 323.769 148.818C322.688 147.65 321.214 147.067 319.346 147.067C317.477 147.067 315.988 147.65 314.879 148.818C313.799 149.957 313.259 151.606 313.259 153.766V167.254H308.267V134.849H313.259V145.928C314.105 144.906 315.171 144.118 316.456 143.563C317.769 143.009 319.2 142.731 320.747 142.731Z" fill="#000584"/>
<path d="M335.041 155.08C335.041 152.657 335.537 150.511 336.53 148.643C337.551 146.775 338.923 145.33 340.646 144.308C342.397 143.257 344.324 142.731 346.426 142.731C348.324 142.731 349.973 143.111 351.374 143.87C352.805 144.6 353.944 145.519 354.79 146.629V143.125H359.826V167.254H354.79V163.663C353.944 164.802 352.79 165.75 351.331 166.509C349.871 167.268 348.207 167.648 346.339 167.648C344.266 167.648 342.368 167.122 340.646 166.072C338.923 164.991 337.551 163.502 336.53 161.605C335.537 159.678 335.041 157.503 335.041 155.08ZM354.79 155.168C354.79 153.504 354.44 152.059 353.739 150.832C353.068 149.606 352.177 148.672 351.068 148.03C349.959 147.388 348.762 147.067 347.477 147.067C346.193 147.067 344.996 147.388 343.886 148.03C342.777 148.643 341.872 149.563 341.171 150.789C340.5 151.986 340.164 153.416 340.164 155.08C340.164 156.744 340.5 158.204 341.171 159.459C341.872 160.714 342.777 161.678 343.886 162.349C345.025 162.992 346.222 163.313 347.477 163.313C348.762 163.313 349.959 162.992 351.068 162.349C352.177 161.707 353.068 160.773 353.739 159.547C354.44 158.291 354.79 156.832 354.79 155.168Z" fill="#000584"/>
<path d="M372.207 147.198V160.554C372.207 161.459 372.411 162.116 372.82 162.524C373.258 162.904 373.988 163.094 375.01 163.094H378.075V167.254H374.134C371.886 167.254 370.163 166.728 368.967 165.677C367.77 164.626 367.171 162.919 367.171 160.554V147.198H364.325V143.125H367.171V137.126H372.207V143.125H378.075V147.198H372.207Z" fill="#000584"/>
<path fill-rule="evenodd" clip-rule="evenodd" d="M74.447 21.0948H108.512L128.992 1.87836C133.328 6.49939 135.651 12.6537 135.449 18.9873C135.248 25.3209 132.538 31.3151 127.917 35.6512C125.88 37.563 125.381 40.8555 127.069 43.0817C132.068 49.6743 135.491 57.5288 136.774 66.0831C128.001 66.869 121.125 74.2399 121.125 83.2169C121.125 88.7043 125.144 92.1151 130.283 93.8527C131.031 94.1054 131.124 95.2293 130.415 95.5745C125.499 97.9663 121.011 101.185 117.146 105.098C112.648 109.652 109.081 115.058 106.647 121.007C105.547 123.694 104.554 127.777 103.795 131.445C103.665 132.072 104.2 132.409 104.477 131.602C108.889 118.751 116.373 111.242 119.847 107.757C120.046 107.557 120.232 107.371 120.404 107.197C124.15 103.404 130.058 99.3956 134.953 97.3428C139.33 95.5073 144.987 94.4683 149.712 94.2689H153.596C158.629 94.1829 163.42 94.9413 167.855 96.3942C173.556 98.2621 178.669 101.278 182.948 105.124C191.461 112.772 196.676 123.703 196.676 135.41L196.676 169.411C196.676 176.309 202.268 181.901 209.166 181.901C212.676 181.901 215.848 180.452 218.117 178.121C217.137 191.89 205.656 202.757 191.637 202.757C176.976 202.757 165.09 190.871 165.09 176.209L165.911 147.622C149.248 170.247 122.422 184.928 92.1672 184.928C84.0641 184.928 76.207 183.875 68.7253 181.898C69.5669 177.72 70.6179 171.608 70.6016 167.203C70.5746 159.874 69.204 153.624 61.8341 145.267C40.956 121.593 47.5104 105.498 54.1443 98.4757C54.1443 98.4757 61.8341 88.6851 61.8341 83.2169C61.8341 73.7159 54.2906 66.018 44.248 66.018C45.6682 56.6326 49.6637 48.0921 55.4916 41.1395C56.8356 39.5361 56.5679 37.0828 55.0422 35.6512C50.4211 31.3151 47.7119 25.3209 47.5104 18.9873C47.3089 12.6537 49.6317 6.49939 53.9678 1.87836L74.447 21.0948ZM75.986 46.1034C71.2408 44.9136 68.3256 41.6938 68.4618 38.0336C78.6213 33.6948 85.0236 42.7183 85.0236 42.7183C85.0236 42.7183 81.7037 47.537 75.986 46.1034ZM114.325 38.0336C114.461 41.6938 111.546 44.9136 106.801 46.1034C101.083 47.537 97.7635 42.7183 97.7635 42.7183C97.7635 42.7183 104.166 33.6948 114.325 38.0336Z" fill="#000584"/>
<defs>
<linearGradient id="paint0_linear_212_93" x1="92.1672" y1="1.87836" x2="92.1672" y2="184.928" gradientUnits="userSpaceOnUse">
<stop offset="0.640625" stop-color="#65C8FF"/>
<stop offset="1" stop-color="#1F7AB7"/>
</linearGradient>
</defs>
</svg>
