<svg width="719" height="202" viewBox="0 0 719 202" fill="none" xmlns="http://www.w3.org/2000/svg">
<path d="M295.065 105.919C292.504 105.919 290.098 104.693 288.592 102.621L266.656 72.4256V103.919C266.656 105.023 265.76 105.919 264.656 105.919H244.18C243.075 105.919 242.18 105.023 242.18 103.919V23.9066C242.18 10.7034 252.883 0 266.086 0C266.401 0 266.656 0.254842 266.656 0.569206V58.5417L288.446 29.273C289.956 27.2452 292.335 26.0503 294.863 26.0503H316.792C318.485 26.0503 319.412 28.0227 318.332 29.3264L287.839 66.1277L318.565 102.631C319.66 103.932 318.735 105.919 317.035 105.919H295.065Z" fill="#000584"/>
<path d="M321.674 65.8415C321.674 57.6352 323.201 50.4308 326.255 44.2283C329.403 38.0258 333.65 33.2547 338.993 29.9149C344.337 26.5751 350.301 24.9053 356.885 24.9053C362.515 24.9053 367.429 26.0503 371.628 28.3405C375.922 30.6306 379.214 33.6364 381.504 37.3579C381.504 31.1129 386.567 26.0503 392.812 26.0503H405.843C405.919 26.0503 405.98 26.1117 405.98 26.1874V105.782C405.98 105.858 405.919 105.919 405.843 105.919H392.812C386.567 105.919 381.504 100.856 381.504 94.6113C379.119 98.3328 375.779 101.339 371.485 103.629C367.286 105.919 362.372 107.064 356.742 107.064C350.253 107.064 344.337 105.394 338.993 102.054C333.65 98.6191 329.403 93.8003 326.255 87.5978C323.201 81.2999 321.674 74.0478 321.674 65.8415ZM381.504 65.9846C381.504 59.8776 379.787 55.0587 376.351 51.5281C373.012 47.9975 368.908 46.2322 364.042 46.2322C359.175 46.2322 355.024 47.9975 351.589 51.5281C348.249 54.9633 346.58 59.7344 346.58 65.8415C346.58 71.9485 348.249 76.8151 351.589 80.4411C355.024 83.9717 359.175 85.7371 364.042 85.7371C368.908 85.7371 373.012 83.9717 376.351 80.4411C379.787 76.9105 381.504 72.0917 381.504 65.9846Z" fill="#000584"/>
<path d="M468.107 85.1645C468.159 85.1645 468.202 85.2071 468.202 85.2595V90.512C468.202 99.021 461.304 105.919 452.795 105.919C443.921 105.919 439.957 103.772 434.995 99.4779C430.033 95.0885 427.552 87.9795 427.552 78.151V46.3753H419.819C418.714 46.3753 417.819 45.4799 417.819 44.3753V28.0503C417.819 26.9458 418.714 26.0503 419.819 26.0503H427.552C427.552 15.2994 436.267 6.58415 447.018 6.58415H451.92C451.979 6.58415 452.028 6.63253 452.028 6.69221V26.0503H466.059C467.163 26.0503 468.059 26.9458 468.059 28.0503V44.3753C468.059 45.4799 467.163 46.3753 466.059 46.3753H452.028V78.4372C452.028 80.8228 452.6 82.5404 453.745 83.5901C454.89 84.6397 456.799 85.1645 459.471 85.1645H468.107Z" fill="#000584"/>
<path d="M504.737 85.7371H539.24C539.315 85.7371 539.375 85.7975 539.375 85.8721C539.375 96.9436 530.4 105.919 519.328 105.919H477.813C477.584 105.919 477.398 105.733 477.398 105.504V94.7205C477.398 89.3761 479.259 84.1984 482.662 80.0771L510.605 46.2322H477.883C477.773 46.2322 477.684 46.1432 477.684 46.0333C477.684 34.997 486.631 26.0503 497.667 26.0503H538.059C538.39 26.0503 538.659 26.3193 538.659 26.6511V37.1123C538.659 42.5396 536.74 47.7921 533.241 51.9409L504.737 85.7371Z" fill="#000584"/>
<path d="M628.131 64.6964C628.131 68.7847 624.617 71.8531 620.528 71.8531H572.309C572.691 76.8151 574.265 80.632 577.033 83.3038C579.895 85.8802 583.378 87.1684 587.481 87.1684C592.635 87.1684 596.464 85.3335 598.967 81.6638C599.845 80.3763 601.218 79.4392 602.776 79.4392H623.698C625.002 79.4392 625.959 80.6698 625.548 81.9081C624.131 86.1794 621.939 90.0799 618.971 93.6094C615.536 97.808 611.194 101.1 605.946 103.486C600.697 105.871 594.829 107.064 588.34 107.064C580.515 107.064 573.55 105.394 567.443 102.054C561.336 98.7145 556.564 93.9434 553.129 87.7409C549.694 81.5385 547.976 74.2864 547.976 65.9846C547.976 57.6829 549.646 50.4308 552.986 44.2283C556.421 38.0258 561.192 33.2547 567.299 29.9149C573.406 26.5751 580.42 24.9053 588.34 24.9053C596.069 24.9053 602.94 26.5274 608.951 29.7718C614.963 33.0162 619.639 37.6441 622.978 43.6558C626.414 49.6674 628.131 56.6809 628.131 64.6964ZM603.083 58.2554C603.083 54.0568 601.652 50.717 598.789 48.236C595.926 45.7551 592.348 44.5146 588.054 44.5146C583.951 44.5146 580.468 45.7073 577.605 48.0929C574.838 50.4785 573.12 53.866 572.452 58.2554H603.083Z" fill="#000584"/>
<path d="M687.649 25.1915C697.001 25.1915 704.444 28.245 709.978 34.3521C715.608 40.3637 718.423 48.6654 718.423 59.2573V105.777C718.423 105.856 718.36 105.919 718.282 105.919C704.921 105.919 694.09 95.0881 694.09 81.7277V62.5494C694.09 57.2057 692.707 53.0549 689.94 50.0968C687.172 47.1387 683.451 45.6596 678.775 45.6596C674.099 45.6596 670.378 47.1387 667.611 50.0968C664.843 53.0549 663.46 57.2057 663.46 62.5494V105.777C663.46 105.855 663.396 105.919 663.318 105.919C649.879 105.919 638.984 95.0244 638.984 81.5853V26.5147C638.984 26.2582 639.192 26.0503 639.448 26.0503H661.46C662.564 26.0503 663.46 26.9458 663.46 28.0503V36.6422C665.941 33.1116 669.281 30.3443 673.479 28.3405C677.678 26.2412 682.401 25.1915 687.649 25.1915Z" fill="#000584"/>
<circle cx="92.1672" cy="92.5246" r="91.5246" fill="url(#paint0_linear_212_94)"/>
<path d="M242.18 154.05C242.18 171.17 256.059 185.05 273.18 185.05H382.328C399.449 185.05 413.328 171.17 413.328 154.05V148.926C413.328 131.805 399.449 117.926 382.328 117.926H242.18V154.05Z" fill="#FFD97F"/>
<path d="M276.389 160.595V166.375H270.74V160.595H276.389Z" fill="#000584"/>
<path d="M280.346 154.289C280.346 151.808 280.842 149.633 281.835 147.765C282.856 145.867 284.258 144.407 286.038 143.386C287.819 142.364 289.863 141.853 292.169 141.853C295.088 141.853 297.497 142.554 299.394 143.955C301.321 145.327 302.62 147.298 303.292 149.867H297.906C297.468 148.67 296.767 147.735 295.804 147.064C294.84 146.393 293.629 146.057 292.169 146.057C290.126 146.057 288.491 146.787 287.265 148.246C286.068 149.677 285.469 151.691 285.469 154.289C285.469 156.888 286.068 158.917 287.265 160.376C288.491 161.836 290.126 162.566 292.169 162.566C295.059 162.566 296.971 161.296 297.906 158.756H303.292C302.591 161.208 301.277 163.164 299.351 164.624C297.424 166.054 295.03 166.77 292.169 166.77C289.863 166.77 287.819 166.259 286.038 165.237C284.258 164.186 282.856 162.726 281.835 160.858C280.842 158.96 280.346 156.771 280.346 154.289Z" fill="#000584"/>
<path d="M320.747 141.853C322.586 141.853 324.221 142.247 325.651 143.035C327.111 143.824 328.25 144.991 329.067 146.539C329.914 148.086 330.337 149.954 330.337 152.144V166.375H325.389V152.888C325.389 150.728 324.849 149.078 323.769 147.94C322.688 146.772 321.214 146.188 319.346 146.188C317.477 146.188 315.988 146.772 314.879 147.94C313.799 149.078 313.259 150.728 313.259 152.888V166.375H308.267V133.971H313.259V145.05C314.105 144.028 315.171 143.24 316.456 142.685C317.769 142.13 319.2 141.853 320.747 141.853Z" fill="#000584"/>
<path d="M335.041 154.202C335.041 151.779 335.537 149.633 336.53 147.765C337.551 145.896 338.923 144.451 340.646 143.429C342.397 142.378 344.324 141.853 346.426 141.853C348.324 141.853 349.973 142.232 351.374 142.991C352.805 143.721 353.944 144.641 354.79 145.75V142.247H359.826V166.375H354.79V162.785C353.944 163.923 352.79 164.872 351.331 165.631C349.871 166.39 348.207 166.77 346.339 166.77C344.266 166.77 342.368 166.244 340.646 165.193C338.923 164.113 337.551 162.624 336.53 160.727C335.537 158.8 335.041 156.625 335.041 154.202ZM354.79 154.289C354.79 152.625 354.44 151.18 353.739 149.954C353.068 148.728 352.177 147.794 351.068 147.152C349.959 146.509 348.762 146.188 347.477 146.188C346.193 146.188 344.996 146.509 343.886 147.152C342.777 147.765 341.872 148.684 341.171 149.91C340.5 151.107 340.164 152.538 340.164 154.202C340.164 155.866 340.5 157.325 341.171 158.581C341.872 159.836 342.777 160.8 343.886 161.471C345.025 162.113 346.222 162.434 347.477 162.434C348.762 162.434 349.959 162.113 351.068 161.471C352.177 160.829 353.068 159.895 353.739 158.668C354.44 157.413 354.79 155.953 354.79 154.289Z" fill="#000584"/>
<path d="M372.207 146.32V159.676C372.207 160.581 372.411 161.237 372.82 161.646C373.258 162.026 373.988 162.215 375.01 162.215H378.075V166.375H374.134C371.886 166.375 370.163 165.85 368.967 164.799C367.77 163.748 367.171 162.04 367.171 159.676V146.32H364.325V142.247H367.171V136.248H372.207V142.247H378.075V146.32H372.207Z" fill="#000584"/>
<path fill-rule="evenodd" clip-rule="evenodd" d="M74.447 20.2165H108.512L128.992 1C133.328 5.62103 135.651 11.7753 135.449 18.1089C135.248 24.4426 132.538 30.4368 127.917 34.7729C125.88 36.6846 125.381 39.9771 127.069 42.2033C132.068 48.796 135.491 56.6504 136.774 65.2048C128.001 65.9906 121.125 73.3616 121.125 82.3385C121.125 87.826 125.144 91.2367 130.283 92.9743C131.031 93.2271 131.124 94.3509 130.415 94.6961C125.499 97.0879 121.011 100.306 117.146 104.22C112.648 108.774 109.081 114.179 106.647 120.129C105.547 122.816 104.554 126.898 103.795 130.567C103.665 131.194 104.2 131.53 104.477 130.723C108.889 117.873 116.373 110.364 119.847 106.879C120.046 106.679 120.232 106.493 120.404 106.319C124.15 102.526 130.058 98.5172 134.953 96.4644C139.33 94.629 144.987 93.59 149.712 93.3905H153.596C158.629 93.3046 163.42 94.063 167.855 95.5158C173.556 97.3838 178.669 100.4 182.948 104.245C191.461 111.894 196.676 122.825 196.676 134.531L196.676 168.533C196.676 175.431 202.268 181.022 209.166 181.022C212.676 181.022 215.848 179.574 218.117 177.243C217.137 191.012 205.656 201.878 191.637 201.878C176.976 201.878 165.09 189.993 165.09 175.331L165.911 146.743C149.248 169.369 122.422 184.049 92.1672 184.049C84.0641 184.049 76.207 182.996 68.7253 181.02C69.5669 176.842 70.6179 170.729 70.6016 166.325C70.5746 158.995 69.204 152.746 61.8341 144.389C40.956 120.714 47.5104 104.619 54.1443 97.5973C54.1443 97.5973 61.8341 87.8067 61.8341 82.3385C61.8341 72.8376 54.2906 65.1396 44.248 65.1396C45.6682 55.7542 49.6637 47.2137 55.4916 40.2612C56.8356 38.6578 56.5679 36.2045 55.0422 34.7729C50.4211 30.4368 47.7119 24.4426 47.5104 18.1089C47.3089 11.7753 49.6317 5.62103 53.9678 1L74.447 20.2165ZM75.986 45.225C71.2408 44.0352 68.3256 40.8154 68.4618 37.1552C78.6213 32.8164 85.0236 41.8399 85.0236 41.8399C85.0236 41.8399 81.7037 46.6586 75.986 45.225ZM114.325 37.1552C114.461 40.8154 111.546 44.0352 106.801 45.225C101.083 46.6586 97.7635 41.8399 97.7635 41.8399C97.7635 41.8399 104.166 32.8164 114.325 37.1552Z" fill="#000584"/>
<defs>
<linearGradient id="paint0_linear_212_94" x1="92.1672" y1="1" x2="92.1672" y2="184.049" gradientUnits="userSpaceOnUse">
<stop stop-color="#FFDB80"/>
<stop offset="1" stop-color="#FFB067"/>
</linearGradient>
</defs>
</svg>
