<svg width="719" height="203" viewBox="0 0 719 203" fill="none" xmlns="http://www.w3.org/2000/svg">
<path d="M295.065 106.554C292.504 106.554 290.098 105.328 288.592 103.256L266.656 73.0606V104.554C266.656 105.658 265.76 106.554 264.656 106.554H244.18C243.075 106.554 242.18 105.658 242.18 104.554V24.5416C242.18 11.3384 252.883 0.63501 266.086 0.63501C266.401 0.63501 266.656 0.889852 266.656 1.20422V59.1767L288.446 29.908C289.956 27.8802 292.335 26.6853 294.863 26.6853H316.792C318.485 26.6853 319.412 28.6577 318.332 29.9614L287.839 66.7628L318.565 103.266C319.66 104.567 318.735 106.554 317.035 106.554H295.065Z" fill="black"/>
<path d="M321.674 66.4765C321.674 58.2702 323.201 51.0658 326.255 44.8633C329.403 38.6608 333.65 33.8897 338.993 30.5499C344.337 27.2102 350.301 25.5403 356.885 25.5403C362.515 25.5403 367.429 26.6853 371.628 28.9755C375.922 31.2656 379.214 34.2714 381.504 37.9929C381.504 31.7479 386.567 26.6853 392.812 26.6853H405.843C405.919 26.6853 405.98 26.7467 405.98 26.8225V106.417C405.98 106.493 405.919 106.554 405.843 106.554H392.812C386.567 106.554 381.504 101.491 381.504 95.2464C379.119 98.9678 375.779 101.974 371.485 104.264C367.286 106.554 362.372 107.699 356.742 107.699C350.253 107.699 344.337 106.029 338.993 102.689C333.65 99.2541 329.403 94.4353 326.255 88.2328C323.201 81.9349 321.674 74.6828 321.674 66.4765ZM381.504 66.6196C381.504 60.5126 379.787 55.6938 376.351 52.1631C373.012 48.6325 368.908 46.8672 364.042 46.8672C359.175 46.8672 355.024 48.6325 351.589 52.1631C348.249 55.5983 346.58 60.3695 346.58 66.4765C346.58 72.5835 348.249 77.4501 351.589 81.0761C355.024 84.6068 359.175 86.3721 364.042 86.3721C368.908 86.3721 373.012 84.6068 376.351 81.0761C379.787 77.5455 381.504 72.7267 381.504 66.6196Z" fill="black"/>
<path d="M468.107 85.7995C468.159 85.7995 468.202 85.8421 468.202 85.8945V91.147C468.202 99.656 461.304 106.554 452.795 106.554C443.921 106.554 439.957 104.407 434.995 100.113C430.033 95.7235 427.552 88.6145 427.552 78.786V47.0103H419.819C418.714 47.0103 417.819 46.1149 417.819 45.0103V28.6853C417.819 27.5808 418.714 26.6853 419.819 26.6853H427.552C427.552 15.9345 436.267 7.21916 447.018 7.21916H451.92C451.979 7.21916 452.028 7.26754 452.028 7.32722V26.6853H466.059C467.163 26.6853 468.059 27.5808 468.059 28.6853V45.0103C468.059 46.1149 467.163 47.0103 466.059 47.0103H452.028V79.0723C452.028 81.4578 452.6 83.1754 453.745 84.2251C454.89 85.2747 456.799 85.7995 459.471 85.7995H468.107Z" fill="black"/>
<path d="M504.737 86.3721H539.24C539.315 86.3721 539.375 86.4325 539.375 86.5071C539.375 97.5786 530.4 106.554 519.328 106.554H477.813C477.584 106.554 477.398 106.368 477.398 106.139V95.3555C477.398 90.0111 479.259 84.8335 482.662 80.7121L510.605 46.8672H477.883C477.773 46.8672 477.684 46.7782 477.684 46.6683C477.684 35.632 486.631 26.6853 497.667 26.6853H538.059C538.39 26.6853 538.659 26.9543 538.659 27.2861V37.7473C538.659 43.1746 536.74 48.4271 533.241 52.5759L504.737 86.3721Z" fill="black"/>
<path d="M628.131 65.3314C628.131 69.4197 624.617 72.4881 620.528 72.4881H572.309C572.691 77.4501 574.265 81.267 577.033 83.9388C579.895 86.5152 583.378 87.8034 587.481 87.8034C592.635 87.8034 596.464 85.9685 598.967 82.2988C599.845 81.0113 601.218 80.0742 602.776 80.0742H623.698C625.002 80.0742 625.959 81.3048 625.548 82.5431C624.131 86.8144 621.939 90.7149 618.971 94.2444C615.536 98.443 611.194 101.735 605.946 104.121C600.697 106.506 594.829 107.699 588.34 107.699C580.515 107.699 573.55 106.029 567.443 102.689C561.336 99.3495 556.564 94.5784 553.129 88.3759C549.694 82.1735 547.976 74.9214 547.976 66.6196C547.976 58.3179 549.646 51.0658 552.986 44.8633C556.421 38.6608 561.192 33.8897 567.299 30.5499C573.406 27.2102 580.42 25.5403 588.34 25.5403C596.069 25.5403 602.94 27.1624 608.951 30.4068C614.963 33.6512 619.639 38.2792 622.978 44.2908C626.414 50.3024 628.131 57.3159 628.131 65.3314ZM603.083 58.8904C603.083 54.6918 601.652 51.352 598.789 48.8711C595.926 46.3901 592.348 45.1496 588.054 45.1496C583.951 45.1496 580.468 46.3424 577.605 48.7279C574.838 51.1135 573.12 54.501 572.452 58.8904H603.083Z" fill="black"/>
<path d="M687.649 25.8265C697.001 25.8265 704.444 28.8801 709.978 34.9871C715.608 40.9987 718.423 49.3005 718.423 59.8923V106.412C718.423 106.491 718.36 106.554 718.282 106.554C704.921 106.554 694.09 95.7231 694.09 82.3627V63.1844C694.09 57.8408 692.707 53.6899 689.94 50.7318C687.172 47.7737 683.451 46.2946 678.775 46.2946C674.099 46.2946 670.378 47.7737 667.611 50.7318C664.843 53.6899 663.46 57.8408 663.46 63.1844V106.412C663.46 106.49 663.396 106.554 663.318 106.554C649.879 106.554 638.984 95.6594 638.984 82.2203V27.1497C638.984 26.8932 639.192 26.6853 639.448 26.6853H661.46C662.564 26.6853 663.46 27.5808 663.46 28.6853V37.2772C665.941 33.7466 669.281 30.9793 673.479 28.9755C677.678 26.8762 682.401 25.8265 687.649 25.8265Z" fill="black"/>
<path fill-rule="evenodd" clip-rule="evenodd" d="M273.18 185.685C256.059 185.685 242.18 171.805 242.18 154.685V118.561H382.328C399.449 118.561 413.328 132.44 413.328 149.561V154.685C413.328 171.805 399.449 185.685 382.328 185.685H273.18ZM325.651 143.67C324.221 142.882 322.586 142.488 320.747 142.488C319.2 142.488 317.769 142.765 316.456 143.32C315.171 143.875 314.105 144.663 313.259 145.685V134.606H308.267V167.01H313.259V153.523C313.259 151.363 313.799 149.713 314.879 148.575C315.988 147.407 317.477 146.823 319.346 146.823C321.214 146.823 322.688 147.407 323.769 148.575C324.849 149.713 325.389 151.363 325.389 153.523V167.01H330.337V152.779C330.337 150.589 329.914 148.721 329.067 147.174C328.25 145.626 327.111 144.459 325.651 143.67ZM280.346 154.924C280.346 152.443 280.842 150.268 281.835 148.4C282.856 146.502 284.258 145.042 286.038 144.021C287.819 142.999 289.863 142.488 292.169 142.488C295.088 142.488 297.497 143.189 299.394 144.59C301.321 145.962 302.62 147.933 303.292 150.502H297.906C297.468 149.305 296.767 148.37 295.804 147.699C294.84 147.028 293.629 146.692 292.169 146.692C290.126 146.692 288.491 147.422 287.265 148.881C286.068 150.312 285.469 152.326 285.469 154.924C285.469 157.523 286.068 159.552 287.265 161.011C288.491 162.471 290.126 163.201 292.169 163.201C295.059 163.201 296.971 161.931 297.906 159.391H303.292C302.591 161.843 301.277 163.799 299.351 165.259C297.424 166.689 295.03 167.405 292.169 167.405C289.863 167.405 287.819 166.894 286.038 165.872C284.258 164.821 282.856 163.361 281.835 161.493C280.842 159.595 280.346 157.406 280.346 154.924ZM276.389 161.23V167.01H270.74V161.23H276.389ZM335.041 154.837C335.041 152.414 335.537 150.268 336.53 148.4C337.551 146.531 338.923 145.086 340.646 144.064C342.397 143.013 344.324 142.488 346.426 142.488C348.324 142.488 349.973 142.867 351.374 143.627C352.805 144.356 353.944 145.276 354.79 146.385V142.882H359.826V167.01H354.79V163.42C353.944 164.558 352.79 165.507 351.331 166.266C349.871 167.025 348.207 167.405 346.339 167.405C344.266 167.405 342.368 166.879 340.646 165.828C338.923 164.748 337.551 163.259 336.53 161.362C335.537 159.435 335.041 157.26 335.041 154.837ZM354.79 154.924C354.79 153.26 354.44 151.815 353.739 150.589C353.068 149.363 352.177 148.429 351.068 147.787C349.959 147.144 348.762 146.823 347.477 146.823C346.193 146.823 344.996 147.144 343.886 147.787C342.777 148.4 341.872 149.319 341.171 150.545C340.5 151.742 340.164 153.173 340.164 154.837C340.164 156.501 340.5 157.961 341.171 159.216C341.872 160.471 342.777 161.435 343.886 162.106C345.025 162.748 346.222 163.069 347.477 163.069C348.762 163.069 349.959 162.748 351.068 162.106C352.177 161.464 353.068 160.53 353.739 159.303C354.44 158.048 354.79 156.588 354.79 154.924ZM372.207 160.311V146.955H378.075V142.882H372.207V136.883H367.171V142.882H364.325V146.955H367.171V160.311C367.171 162.675 367.77 164.383 368.967 165.434C370.163 166.485 371.886 167.01 374.134 167.01H378.075V162.85H375.01C373.988 162.85 373.258 162.661 372.82 162.281C372.411 161.872 372.207 161.216 372.207 160.311Z" fill="black"/>
<path fill-rule="evenodd" clip-rule="evenodd" d="M108.512 20.8515H74.447L53.9678 1.63501C49.6317 6.25604 47.3089 12.4103 47.5104 18.744C47.7119 25.0776 50.4211 31.0718 55.0422 35.4079C56.5679 36.8395 56.8356 39.2928 55.4916 40.8962C49.6637 47.8487 45.6682 56.3892 44.248 65.7747C54.2906 65.7747 61.8341 73.4726 61.8341 82.9735C61.8341 88.4417 54.1443 98.2323 54.1443 98.2323C47.5104 105.254 40.956 121.349 61.8341 145.024C69.204 153.381 70.5746 159.63 70.6016 166.96C70.6179 171.364 69.5669 177.477 68.7253 181.655C76.207 183.631 84.0641 184.684 92.1672 184.684C122.422 184.684 149.248 170.004 165.911 147.378L165.09 175.966C165.09 190.628 176.976 202.513 191.637 202.513C205.656 202.513 217.137 191.647 218.117 177.878C215.848 180.209 212.676 181.657 209.166 181.657C202.268 181.657 196.676 176.066 196.676 169.168L196.676 135.166C196.676 123.46 191.461 112.529 182.948 104.88C178.669 101.035 173.556 98.0188 167.855 96.1508C163.42 94.698 158.629 93.9396 153.596 94.0255H149.712C144.987 94.225 139.33 95.264 134.953 97.0994C130.058 99.1522 124.15 103.161 120.404 106.954C120.232 107.128 120.046 107.314 119.847 107.514C116.373 110.999 108.889 118.508 104.477 131.358C104.2 132.165 103.665 131.829 103.795 131.202C104.554 127.533 105.547 123.451 106.647 120.764C109.081 114.814 112.648 109.409 117.146 104.855C121.011 100.941 125.499 97.7229 130.415 95.3311C131.124 94.9859 131.031 93.8621 130.283 93.6093C125.144 91.8717 121.125 88.461 121.125 82.9735C121.125 73.9966 128.001 66.6256 136.774 65.8398C135.491 57.2854 132.068 49.431 127.069 42.8383C125.381 40.6122 125.88 37.3196 127.917 35.4079C132.538 31.0718 135.248 25.0776 135.449 18.744C135.651 12.4103 133.328 6.25604 128.992 1.63501L108.512 20.8515ZM68.4618 37.7902C68.3256 41.4504 71.2408 44.6703 75.986 45.86C81.7037 47.2936 85.0236 42.4749 85.0236 42.4749C85.0236 42.4749 78.6213 33.4514 68.4618 37.7902ZM106.801 45.86C111.546 44.6703 114.461 41.4504 114.325 37.7902C104.166 33.4514 97.7635 42.4749 97.7635 42.4749C97.7635 42.4749 101.083 47.2936 106.801 45.86ZM143.455 17.344C143.466 17.8943 143.462 18.4461 143.445 18.9989C143.342 22.2352 142.748 25.4051 141.709 28.4099C160.312 42.6647 172.593 64.7554 173.622 89.7497C177.212 91.2087 180.577 93.0599 183.669 95.2407C183.684 94.5489 183.692 93.8553 183.692 93.1598C183.692 61.6173 167.736 33.8016 143.455 17.344ZM62.521 169.126C62.3034 172.201 61.6783 176.014 61.045 179.257C25.8181 166.521 0.642578 132.78 0.642578 93.1598C0.642578 62.2189 15.996 34.864 39.4997 18.298C39.502 18.5314 39.5069 18.765 39.5143 18.9989C39.6269 22.537 40.3257 25.9958 41.5525 29.2462C22.721 44.1795 10.6426 67.2591 10.6426 93.1598C10.6426 127.726 32.1546 157.267 62.521 169.126Z" fill="black"/>
</svg>
