<svg width="719" height="203" viewBox="0 0 719 203" fill="none" xmlns="http://www.w3.org/2000/svg">
<path d="M295.065 106.676C292.504 106.676 290.098 105.45 288.592 103.378L266.656 73.1823V104.676C266.656 105.78 265.76 106.676 264.656 106.676H244.18C243.075 106.676 242.18 105.78 242.18 104.676V24.6634C242.18 11.4601 252.883 0.756714 266.086 0.756714C266.401 0.756714 266.656 1.01156 266.656 1.32592V59.2984L288.446 30.0297C289.956 28.0019 292.335 26.807 294.863 26.807H316.792C318.485 26.807 319.412 28.7794 318.332 30.0831L287.839 66.8845L318.565 103.388C319.66 104.689 318.735 106.676 317.035 106.676H295.065Z" fill="black"/>
<path d="M321.674 66.5982C321.674 58.3919 323.201 51.1875 326.255 44.985C329.403 38.7826 333.65 34.0114 338.993 30.6716C344.337 27.3319 350.301 25.662 356.885 25.662C362.515 25.662 367.429 26.807 371.628 29.0972C375.922 31.3873 379.214 34.3931 381.504 38.1146C381.504 31.8696 386.567 26.807 392.812 26.807H405.843C405.919 26.807 405.98 26.8684 405.98 26.9442V106.538C405.98 106.614 405.919 106.676 405.843 106.676H392.812C386.567 106.676 381.504 101.613 381.504 95.3681C379.119 99.0895 375.779 102.095 371.485 104.385C367.286 106.676 362.372 107.821 356.742 107.821C350.253 107.821 344.337 106.151 338.993 102.811C333.65 99.3758 329.403 94.557 326.255 88.3545C323.201 82.0566 321.674 74.8045 321.674 66.5982ZM381.504 66.7413C381.504 60.6343 379.787 55.8155 376.351 52.2848C373.012 48.7542 368.908 46.9889 364.042 46.9889C359.175 46.9889 355.024 48.7542 351.589 52.2848C348.249 55.72 346.58 60.4912 346.58 66.5982C346.58 72.7052 348.249 77.5718 351.589 81.1978C355.024 84.7285 359.175 86.4938 364.042 86.4938C368.908 86.4938 373.012 84.7285 376.351 81.1978C379.787 77.6672 381.504 72.8484 381.504 66.7413Z" fill="black"/>
<path d="M468.107 85.9212C468.159 85.9212 468.202 85.9638 468.202 86.0162V91.2688C468.202 99.7777 461.304 106.676 452.795 106.676C443.921 106.676 439.957 104.529 434.995 100.235C430.033 95.8452 427.552 88.7362 427.552 78.9077V47.132H419.819C418.714 47.132 417.819 46.2366 417.819 45.132V28.807C417.819 27.7025 418.714 26.807 419.819 26.807H427.552C427.552 16.0562 436.267 7.34086 447.018 7.34086H451.92C451.979 7.34086 452.028 7.38924 452.028 7.44892V26.807H466.059C467.163 26.807 468.059 27.7025 468.059 28.807V45.132C468.059 46.2366 467.163 47.132 466.059 47.132H452.028V79.194C452.028 81.5795 452.6 83.2971 453.745 84.3468C454.89 85.3964 456.799 85.9212 459.471 85.9212H468.107Z" fill="black"/>
<path d="M504.737 86.4938H539.24C539.315 86.4938 539.375 86.5542 539.375 86.6288C539.375 97.7003 530.4 106.676 519.328 106.676H477.813C477.584 106.676 477.398 106.49 477.398 106.261V95.4772C477.398 90.1328 479.259 84.9552 482.662 80.8338L510.605 46.9889H477.883C477.773 46.9889 477.684 46.8999 477.684 46.7901C477.684 35.7537 486.631 26.807 497.667 26.807H538.059C538.39 26.807 538.659 27.076 538.659 27.4078V37.869C538.659 43.2963 536.74 48.5488 533.241 52.6976L504.737 86.4938Z" fill="black"/>
<path d="M628.131 65.4531C628.131 69.5414 624.617 72.6098 620.528 72.6098H572.309C572.691 77.5718 574.265 81.3887 577.033 84.0605C579.895 86.6369 583.378 87.9251 587.481 87.9251C592.635 87.9251 596.464 86.0902 598.967 82.4205C599.845 81.133 601.218 80.1959 602.776 80.1959H623.698C625.002 80.1959 625.959 81.4265 625.548 82.6648C624.131 86.9361 621.939 90.8366 618.971 94.3661C615.536 98.5647 611.194 101.857 605.946 104.242C600.697 106.628 594.829 107.821 588.34 107.821C580.515 107.821 573.55 106.151 567.443 102.811C561.336 99.4712 556.564 94.7001 553.129 88.4977C549.694 82.2952 547.976 75.0431 547.976 66.7413C547.976 58.4396 549.646 51.1875 552.986 44.985C556.421 38.7826 561.192 34.0114 567.299 30.6716C573.406 27.3319 580.42 25.662 588.34 25.662C596.069 25.662 602.94 27.2841 608.951 30.5285C614.963 33.7729 619.639 38.4009 622.978 44.4125C626.414 50.4241 628.131 57.4376 628.131 65.4531ZM603.083 59.0121C603.083 54.8135 601.652 51.4737 598.789 48.9928C595.926 46.5118 592.348 45.2713 588.054 45.2713C583.951 45.2713 580.468 46.4641 577.605 48.8496C574.838 51.2352 573.12 54.6227 572.452 59.0121H603.083Z" fill="black"/>
<path d="M687.649 25.9482C697.001 25.9482 704.444 29.0018 709.978 35.1088C715.608 41.1204 718.423 49.4222 718.423 60.014V106.534C718.423 106.612 718.36 106.676 718.282 106.676C704.921 106.676 694.09 95.8448 694.09 82.4844V63.3061C694.09 57.9625 692.707 53.8116 689.94 50.8535C687.172 47.8954 683.451 46.4163 678.775 46.4163C674.099 46.4163 670.378 47.8954 667.611 50.8535C664.843 53.8116 663.46 57.9625 663.46 63.3061V106.533C663.46 106.612 663.396 106.676 663.318 106.676C649.879 106.676 638.984 95.7811 638.984 82.342V27.2714C638.984 27.0149 639.192 26.807 639.448 26.807H661.46C662.564 26.807 663.46 27.7025 663.46 28.807V37.3989C665.941 33.8683 669.281 31.101 673.479 29.0972C677.678 26.9979 682.401 25.9482 687.649 25.9482Z" fill="black"/>
<circle opacity="0.2" cx="92.1672" cy="93.2813" r="91.5246" fill="black"/>
<path d="M354.79 155.046C354.79 153.382 354.44 151.937 353.739 150.711C353.068 149.485 352.177 148.551 351.068 147.908C349.959 147.266 348.762 146.945 347.477 146.945C346.193 146.945 344.996 147.266 343.886 147.908C342.777 148.521 341.872 149.441 341.171 150.667C340.5 151.864 340.164 153.294 340.164 154.959C340.164 156.623 340.5 158.082 341.171 159.338C341.872 160.593 342.777 161.556 343.886 162.228C345.025 162.87 346.222 163.191 347.477 163.191C348.762 163.191 349.959 162.87 351.068 162.228C352.177 161.585 353.068 160.651 353.739 159.425C354.44 158.17 354.79 156.71 354.79 155.046Z" fill="black"/>
<path fill-rule="evenodd" clip-rule="evenodd" d="M273.18 185.806C256.059 185.806 242.18 171.927 242.18 154.806V118.682H382.328C399.449 118.682 413.328 132.562 413.328 149.682V154.806C413.328 171.927 399.449 185.806 382.328 185.806H273.18ZM325.651 143.792C324.221 143.004 322.586 142.61 320.747 142.61C319.2 142.61 317.769 142.887 316.456 143.442C315.171 143.996 314.105 144.785 313.259 145.806V134.727H308.267V167.132H313.259V153.645C313.259 151.484 313.799 149.835 314.879 148.697C315.988 147.529 317.477 146.945 319.346 146.945C321.214 146.945 322.688 147.529 323.769 148.697C324.849 149.835 325.389 151.484 325.389 153.645V167.132H330.337V152.9C330.337 150.711 329.914 148.842 329.067 147.295C328.25 145.748 327.111 144.58 325.651 143.792ZM280.346 155.046C280.346 152.565 280.842 150.39 281.835 148.521C282.856 146.624 284.258 145.164 286.038 144.142C287.819 143.121 289.863 142.61 292.169 142.61C295.088 142.61 297.497 143.31 299.394 144.712C301.321 146.084 302.62 148.054 303.292 150.623H297.906C297.468 149.426 296.767 148.492 295.804 147.821C294.84 147.149 293.629 146.814 292.169 146.814C290.126 146.814 288.491 147.543 287.265 149.003C286.068 150.434 285.469 152.448 285.469 155.046C285.469 157.644 286.068 159.673 287.265 161.133C288.491 162.593 290.126 163.322 292.169 163.322C295.059 163.322 296.971 162.053 297.906 159.513H303.292C302.591 161.965 301.277 163.921 299.351 165.381C297.424 166.811 295.03 167.526 292.169 167.526C289.863 167.526 287.819 167.015 286.038 165.994C284.258 164.943 282.856 163.483 281.835 161.615C280.842 159.717 280.346 157.528 280.346 155.046ZM276.389 161.352V167.132H270.74V161.352H276.389ZM335.041 154.959C335.041 152.535 335.537 150.39 336.53 148.521C337.551 146.653 338.923 145.208 340.646 144.186C342.397 143.135 344.324 142.61 346.426 142.61C348.324 142.61 349.973 142.989 351.374 143.748C352.805 144.478 353.944 145.398 354.79 146.507V143.004H359.826V167.132H354.79V163.541C353.944 164.68 352.79 165.629 351.331 166.388C349.871 167.147 348.207 167.526 346.339 167.526C344.266 167.526 342.368 167.001 340.646 165.95C338.923 164.87 337.551 163.381 336.53 161.483C335.537 159.556 335.041 157.382 335.041 154.959ZM372.207 160.432V147.076H378.075V143.004H372.207V137.005H367.171V143.004H364.325V147.076H367.171V160.432C367.171 162.797 367.77 164.505 368.967 165.556C370.163 166.607 371.886 167.132 374.134 167.132H378.075V162.972H375.01C373.988 162.972 373.258 162.782 372.82 162.403C372.411 161.994 372.207 161.337 372.207 160.432Z" fill="black"/>
<path fill-rule="evenodd" clip-rule="evenodd" d="M74.447 20.9732H108.512L128.992 1.75671C133.328 6.37775 135.651 12.532 135.449 18.8657C135.248 25.1993 132.538 31.1935 127.917 35.5296C125.88 37.4413 125.381 40.7339 127.069 42.96C132.068 49.5527 135.491 57.4071 136.774 65.9615C128.001 66.7473 121.125 74.1183 121.125 83.0952C121.125 88.5827 125.144 91.9934 130.283 93.731C131.031 93.9838 131.124 95.1076 130.415 95.4528C125.499 97.8446 121.011 101.063 117.146 104.977C112.648 109.53 109.081 114.936 106.647 120.885C105.547 123.573 104.554 127.655 103.795 131.324C103.665 131.951 104.2 132.287 104.477 131.48C108.889 118.63 116.373 111.121 119.847 107.635C120.046 107.436 120.232 107.249 120.404 107.076C124.15 103.283 130.058 99.2739 134.953 97.2211C139.33 95.3857 144.987 94.3467 149.712 94.1472H153.596C158.629 94.0613 163.42 94.8197 167.855 96.2725C173.556 98.1405 178.669 101.156 182.948 105.002C191.461 112.651 196.676 123.582 196.676 135.288L196.676 169.29C196.676 176.187 202.268 181.779 209.166 181.779C212.676 181.779 215.848 180.331 218.117 177.999C217.137 191.769 205.656 202.635 191.637 202.635C176.976 202.635 165.09 190.749 165.09 176.088L165.911 147.5C149.248 170.126 122.422 184.806 92.1672 184.806C84.0641 184.806 76.207 183.753 68.7253 181.776C69.5669 177.599 70.6179 171.486 70.6016 167.082C70.5746 159.752 69.204 153.502 61.8341 145.145C40.956 121.471 47.5104 105.376 54.1443 98.354C54.1443 98.354 61.8341 88.5634 61.8341 83.0952C61.8341 73.5943 54.2906 65.8964 44.248 65.8964C45.6682 56.5109 49.6637 47.9704 55.4916 41.0179C56.8356 39.4145 56.5679 36.9612 55.0422 35.5296C50.4211 31.1935 47.7119 25.1993 47.5104 18.8657C47.3089 12.532 49.6317 6.37775 53.9678 1.75671L74.447 20.9732ZM75.986 45.9817C71.2408 44.792 68.3256 41.5721 68.4618 37.9119C78.6213 33.5731 85.0236 42.5966 85.0236 42.5966C85.0236 42.5966 81.7037 47.4153 75.986 45.9817ZM114.325 37.9119C114.461 41.5721 111.546 44.792 106.801 45.9817C101.083 47.4153 97.7635 42.5966 97.7635 42.5966C97.7635 42.5966 104.166 33.5731 114.325 37.9119Z" fill="black"/>
</svg>
