<svg width="477" height="398" viewBox="0 0 477 398" fill="none" xmlns="http://www.w3.org/2000/svg">
<path d="M52.8849 317.919C50.324 317.919 47.9179 316.693 46.4127 314.621L24.4759 284.426V315.919C24.4759 317.023 23.5804 317.919 22.4759 317.919H2C0.895432 317.919 0 317.023 0 315.919V235.907C0 222.703 10.7034 212 23.9067 212C24.221 212 24.4759 212.255 24.4759 212.569V270.542L46.2662 241.273C47.7759 239.245 50.1551 238.05 52.6831 238.05H74.6122C76.3052 238.05 77.2324 240.023 76.1522 241.326L45.6596 278.128L76.3854 314.631C77.4803 315.932 76.5556 317.919 74.8553 317.919H52.8849Z" fill="#000584"/>
<path d="M79.4946 277.841C79.4946 269.635 81.0213 262.431 84.0749 256.228C87.2238 250.026 91.4701 245.255 96.8138 241.915C102.157 238.575 108.121 236.905 114.705 236.905C120.335 236.905 125.25 238.05 129.448 240.34C133.742 242.631 137.034 245.636 139.324 249.358C139.324 243.113 144.387 238.05 150.632 238.05H163.663C163.739 238.05 163.8 238.112 163.8 238.187V317.782C163.8 317.858 163.739 317.919 163.663 317.919H150.632C144.387 317.919 139.324 312.856 139.324 306.611C136.939 310.333 133.599 313.339 129.305 315.629C125.107 317.919 120.192 319.064 114.562 319.064C108.074 319.064 102.157 317.394 96.8138 314.054C91.4701 310.619 87.2238 305.8 84.0749 299.598C81.0213 293.3 79.4946 286.048 79.4946 277.841ZM139.324 277.985C139.324 271.878 137.607 267.059 134.172 263.528C130.832 259.997 126.729 258.232 121.862 258.232C116.996 258.232 112.845 259.997 109.41 263.528C106.07 266.963 104.4 271.734 104.4 277.841C104.4 283.949 106.07 288.815 109.41 292.441C112.845 295.972 116.996 297.737 121.862 297.737C126.729 297.737 130.832 295.972 134.172 292.441C137.607 288.91 139.324 284.092 139.324 277.985Z" fill="#000584"/>
<path d="M225.927 297.165C225.98 297.165 226.022 297.207 226.022 297.26V302.512C226.022 311.021 219.124 317.919 210.615 317.919C201.741 317.919 197.777 315.772 192.815 311.478C187.853 307.088 185.372 299.979 185.372 290.151V258.375H177.639C176.534 258.375 175.639 257.48 175.639 256.375V240.05C175.639 238.946 176.534 238.05 177.639 238.05H185.372C185.372 227.299 194.087 218.584 204.838 218.584H209.74C209.8 218.584 209.848 218.633 209.848 218.692V238.05H223.879C224.984 238.05 225.879 238.946 225.879 240.05V256.375C225.879 257.48 224.984 258.375 223.879 258.375H209.848V290.437C209.848 292.823 210.421 294.54 211.566 295.59C212.711 296.64 214.619 297.165 217.291 297.165H225.927Z" fill="#000584"/>
<path d="M262.557 297.737H297.06C297.135 297.737 297.195 297.798 297.195 297.872C297.195 308.944 288.22 317.919 277.148 317.919H235.633C235.404 317.919 235.218 317.733 235.218 317.504V306.721C235.218 301.376 237.08 296.198 240.482 292.077L268.425 258.232H235.704C235.594 258.232 235.505 258.143 235.505 258.033C235.505 246.997 244.451 238.05 255.488 238.05H295.879C296.211 238.05 296.48 238.319 296.48 238.651V249.112C296.48 254.54 294.56 259.792 291.061 263.941L262.557 297.737Z" fill="#000584"/>
<path d="M385.952 276.696C385.952 280.785 382.437 283.853 378.349 283.853H330.129C330.511 288.815 332.086 292.632 334.853 295.304C337.716 297.88 341.198 299.168 345.302 299.168C350.455 299.168 354.284 297.334 356.787 293.664C357.666 292.376 359.038 291.439 360.597 291.439H381.518C382.823 291.439 383.779 292.67 383.369 293.908C381.952 298.179 379.759 302.08 376.791 305.609C373.356 309.808 369.014 313.1 363.766 315.486C358.518 317.871 352.649 319.064 346.16 319.064C338.336 319.064 331.37 317.394 325.263 314.054C319.156 310.715 314.385 305.943 310.95 299.741C307.514 293.538 305.797 286.286 305.797 277.985C305.797 269.683 307.467 262.431 310.806 256.228C314.242 250.026 319.013 245.255 325.12 241.915C331.227 238.575 338.24 236.905 346.16 236.905C353.89 236.905 360.76 238.527 366.772 241.772C372.783 245.016 377.459 249.644 380.799 255.656C384.234 261.667 385.952 268.681 385.952 276.696ZM360.903 270.255C360.903 266.057 359.472 262.717 356.609 260.236C353.746 257.755 350.168 256.515 345.874 256.515C341.771 256.515 338.288 257.707 335.425 260.093C332.658 262.478 330.941 265.866 330.273 270.255H360.903Z" fill="#000584"/>
<path d="M445.47 237.192C454.821 237.192 462.264 240.245 467.799 246.352C473.429 252.364 476.244 260.665 476.244 271.257V317.777C476.244 317.856 476.18 317.919 476.102 317.919C462.742 317.919 451.911 307.088 451.911 293.728V274.549C451.911 269.206 450.527 265.055 447.76 262.097C444.993 259.139 441.271 257.66 436.595 257.66C431.92 257.66 428.198 259.139 425.431 262.097C422.664 265.055 421.28 269.206 421.28 274.549V317.777C421.28 317.855 421.216 317.919 421.138 317.919C407.699 317.919 396.804 307.024 396.804 293.585V238.515C396.804 238.258 397.012 238.05 397.269 238.05H419.28C420.385 238.05 421.28 238.946 421.28 240.05V248.642C423.761 245.112 427.101 242.344 431.3 240.34C435.498 238.241 440.222 237.192 445.47 237.192Z" fill="#000584"/>
<circle cx="236.472" cy="91.7843" r="91.5246" fill="url(#paint0_linear_212_128)"/>
<path d="M152.548 366.05C152.548 383.17 166.427 397.05 183.548 397.05H292.696C309.817 397.05 323.696 383.17 323.696 366.05V360.926C323.696 343.805 309.817 329.926 292.696 329.926H152.548V366.05Z" fill="#FFD97F"/>
<path d="M190.103 372.595V378.375H184.454V372.595H190.103Z" fill="#000584"/>
<path d="M194.06 366.289C194.06 363.808 194.556 361.633 195.549 359.765C196.571 357.867 197.972 356.407 199.753 355.386C201.533 354.364 203.577 353.853 205.883 353.853C208.803 353.853 211.211 354.554 213.109 355.955C215.035 357.327 216.335 359.298 217.006 361.867H211.62C211.182 360.67 210.481 359.735 209.518 359.064C208.554 358.393 207.343 358.057 205.883 358.057C203.84 358.057 202.205 358.787 200.979 360.246C199.782 361.677 199.183 363.691 199.183 366.289C199.183 368.888 199.782 370.917 200.979 372.376C202.205 373.836 203.84 374.566 205.883 374.566C208.773 374.566 210.686 373.296 211.62 370.756H217.006C216.305 373.208 214.992 375.164 213.065 376.624C211.138 378.054 208.744 378.77 205.883 378.77C203.577 378.77 201.533 378.259 199.753 377.237C197.972 376.186 196.571 374.726 195.549 372.858C194.556 370.96 194.06 368.771 194.06 366.289Z" fill="#000584"/>
<path d="M234.461 353.853C236.3 353.853 237.935 354.247 239.366 355.035C240.825 355.824 241.964 356.991 242.781 358.539C243.628 360.086 244.051 361.954 244.051 364.144V378.375H239.103V364.888C239.103 362.728 238.563 361.078 237.483 359.94C236.403 358.772 234.928 358.188 233.06 358.188C231.192 358.188 229.703 358.772 228.593 359.94C227.513 361.078 226.973 362.728 226.973 364.888V378.375H221.981V345.971H226.973V357.05C227.82 356.028 228.885 355.24 230.17 354.685C231.483 354.13 232.914 353.853 234.461 353.853Z" fill="#000584"/>
<path d="M248.755 366.202C248.755 363.779 249.251 361.633 250.244 359.765C251.266 357.896 252.638 356.451 254.36 355.429C256.112 354.378 258.038 353.853 260.14 353.853C262.038 353.853 263.687 354.232 265.089 354.991C266.519 355.721 267.658 356.641 268.504 357.75V354.247H273.54V378.375H268.504V374.785C267.658 375.923 266.505 376.872 265.045 377.631C263.585 378.39 261.921 378.77 260.053 378.77C257.98 378.77 256.083 378.244 254.36 377.193C252.638 376.113 251.266 374.624 250.244 372.727C249.251 370.8 248.755 368.625 248.755 366.202ZM268.504 366.289C268.504 364.625 268.154 363.18 267.453 361.954C266.782 360.728 265.892 359.794 264.782 359.152C263.673 358.509 262.476 358.188 261.191 358.188C259.907 358.188 258.71 358.509 257.601 359.152C256.491 359.765 255.586 360.684 254.886 361.91C254.214 363.107 253.878 364.538 253.878 366.202C253.878 367.866 254.214 369.325 254.886 370.581C255.586 371.836 256.491 372.8 257.601 373.471C258.739 374.113 259.936 374.434 261.191 374.434C262.476 374.434 263.673 374.113 264.782 373.471C265.892 372.829 266.782 371.895 267.453 370.668C268.154 369.413 268.504 367.953 268.504 366.289Z" fill="#000584"/>
<path d="M285.921 358.32V371.676C285.921 372.581 286.126 373.237 286.534 373.646C286.972 374.026 287.702 374.215 288.724 374.215H291.789V378.375H287.848C285.6 378.375 283.878 377.85 282.681 376.799C281.484 375.748 280.885 374.04 280.885 371.676V358.32H278.039V354.247H280.885V348.248H285.921V354.247H291.789V358.32H285.921Z" fill="#000584"/>
<path fill-rule="evenodd" clip-rule="evenodd" d="M218.752 19.4761H252.817L273.296 0.259644C277.633 4.88068 279.955 11.0349 279.754 17.3686C279.552 23.7022 276.843 29.6964 272.222 34.0325C270.185 35.9442 269.686 39.2368 271.374 41.463C276.373 48.0556 279.795 55.9101 281.078 64.4644C272.306 65.2502 265.43 72.6212 265.43 81.5982C265.43 87.0856 269.449 90.4963 274.588 92.234C275.336 92.4867 275.429 93.6106 274.72 93.9557C269.804 96.3476 265.316 99.5659 261.45 103.48C256.953 108.033 253.385 113.439 250.952 119.388C249.852 122.076 248.858 126.158 248.1 129.827C247.97 130.454 248.504 130.79 248.781 129.983C253.193 117.133 260.678 109.624 264.152 106.138C264.351 105.939 264.537 105.752 264.708 105.579C268.455 101.786 274.363 97.7769 279.258 95.7241C283.635 93.8886 289.292 92.8496 294.016 92.6501H297.901C302.933 92.5642 307.725 93.3226 312.159 94.7755C317.861 96.6434 322.974 99.6594 327.253 103.505C335.765 111.154 340.981 122.085 340.981 133.791L340.981 167.793C340.981 174.69 346.573 180.282 353.47 180.282C356.981 180.282 360.153 178.834 362.422 176.502C361.442 190.272 349.961 201.138 335.942 201.138C321.28 201.138 309.395 189.252 309.395 174.59L310.216 146.003C293.553 168.629 266.727 183.309 236.472 183.309C228.369 183.309 220.512 182.256 213.03 180.279C213.872 176.101 214.923 169.989 214.906 165.585C214.879 158.255 213.509 152.005 206.139 143.648C185.261 119.974 191.815 103.879 198.449 96.857C198.449 96.857 206.139 87.0663 206.139 81.5982C206.139 72.0972 198.595 64.3993 188.553 64.3993C189.973 55.0139 193.969 46.4734 199.796 39.5208C201.14 37.9174 200.873 35.4641 199.347 34.0325C194.726 29.6964 192.017 23.7022 191.815 17.3686C191.614 11.0349 193.937 4.88068 198.273 0.259644L218.752 19.4761ZM220.291 44.4846C215.546 43.2949 212.63 40.0751 212.767 36.4149C222.926 32.076 229.328 41.0995 229.328 41.0995C229.328 41.0995 226.008 45.9182 220.291 44.4846ZM258.63 36.4149C258.766 40.0751 255.851 43.2949 251.106 44.4846C245.388 45.9182 242.068 41.0995 242.068 41.0995C242.068 41.0995 248.471 32.076 258.63 36.4149Z" fill="#000584"/>
<defs>
<linearGradient id="paint0_linear_212_128" x1="236.472" y1="0.259644" x2="236.472" y2="183.309" gradientUnits="userSpaceOnUse">
<stop stop-color="#FFDB80"/>
<stop offset="1" stop-color="#FFB067"/>
</linearGradient>
</defs>
</svg>
