<svg width="477" height="398" viewBox="0 0 477 398" fill="none" xmlns="http://www.w3.org/2000/svg">
<path d="M52.8849 318.082C50.324 318.082 47.9179 316.856 46.4127 314.784L24.4759 284.589V316.082C24.4759 317.186 23.5804 318.082 22.4759 318.082H2C0.895432 318.082 0 317.186 0 316.082V236.07C0 222.866 10.7034 212.163 23.9067 212.163C24.221 212.163 24.4759 212.418 24.4759 212.732V270.705L46.2662 241.436C47.7759 239.408 50.1551 238.213 52.6831 238.213H74.6122C76.3052 238.213 77.2324 240.186 76.1522 241.489L45.6596 278.291L76.3854 314.794C77.4803 316.095 76.5556 318.082 74.8553 318.082H52.8849Z" fill="#000584"/>
<path d="M79.4946 278.004C79.4946 269.798 81.0213 262.594 84.0749 256.391C87.2238 250.189 91.4701 245.418 96.8138 242.078C102.157 238.738 108.121 237.068 114.705 237.068C120.335 237.068 125.25 238.213 129.448 240.503C133.742 242.794 137.034 245.799 139.324 249.521C139.324 243.276 144.387 238.213 150.632 238.213H163.663C163.739 238.213 163.8 238.275 163.8 238.35V317.945C163.8 318.02 163.739 318.082 163.663 318.082H150.632C144.387 318.082 139.324 313.019 139.324 306.774C136.939 310.496 133.599 313.502 129.305 315.792C125.107 318.082 120.192 319.227 114.562 319.227C108.074 319.227 102.157 317.557 96.8138 314.217C91.4701 310.782 87.2238 305.963 84.0749 299.761C81.0213 293.463 79.4946 286.211 79.4946 278.004ZM139.324 278.148C139.324 272.041 137.607 267.222 134.172 263.691C130.832 260.16 126.729 258.395 121.862 258.395C116.996 258.395 112.845 260.16 109.41 263.691C106.07 267.126 104.4 271.897 104.4 278.004C104.4 284.111 106.07 288.978 109.41 292.604C112.845 296.135 116.996 297.9 121.862 297.9C126.729 297.9 130.832 296.135 134.172 292.604C137.607 289.073 139.324 284.255 139.324 278.148Z" fill="#000584"/>
<path d="M225.927 297.327C225.98 297.327 226.022 297.37 226.022 297.422V302.675C226.022 311.184 219.124 318.082 210.615 318.082C201.741 318.082 197.777 315.935 192.815 311.641C187.853 307.251 185.372 300.142 185.372 290.314V258.538H177.639C176.534 258.538 175.639 257.643 175.639 256.538V240.213C175.639 239.109 176.534 238.213 177.639 238.213H185.372C185.372 227.462 194.087 218.747 204.838 218.747H209.74C209.8 218.747 209.848 218.795 209.848 218.855V238.213H223.879C224.984 238.213 225.879 239.109 225.879 240.213V256.538C225.879 257.643 224.984 258.538 223.879 258.538H209.848V290.6C209.848 292.986 210.421 294.703 211.566 295.753C212.711 296.803 214.619 297.327 217.291 297.327H225.927Z" fill="#000584"/>
<path d="M262.557 297.9H297.06C297.135 297.9 297.195 297.96 297.195 298.035C297.195 309.107 288.22 318.082 277.148 318.082H235.633C235.404 318.082 235.218 317.896 235.218 317.667V306.883C235.218 301.539 237.08 296.361 240.482 292.24L268.425 258.395H235.704C235.594 258.395 235.505 258.306 235.505 258.196C235.505 247.16 244.451 238.213 255.488 238.213H295.879C296.211 238.213 296.48 238.482 296.48 238.814V249.275C296.48 254.703 294.56 259.955 291.061 264.104L262.557 297.9Z" fill="#000584"/>
<path d="M385.952 276.859C385.952 280.948 382.437 284.016 378.349 284.016H330.129C330.511 288.978 332.086 292.795 334.853 295.467C337.716 298.043 341.198 299.331 345.302 299.331C350.455 299.331 354.284 297.496 356.787 293.827C357.666 292.539 359.038 291.602 360.597 291.602H381.518C382.823 291.602 383.779 292.833 383.369 294.071C381.952 298.342 379.759 302.243 376.791 305.772C373.356 309.971 369.014 313.263 363.766 315.649C358.518 318.034 352.649 319.227 346.16 319.227C338.336 319.227 331.37 317.557 325.263 314.217C319.156 310.877 314.385 306.106 310.95 299.904C307.514 293.701 305.797 286.449 305.797 278.148C305.797 269.846 307.467 262.594 310.806 256.391C314.242 250.189 319.013 245.418 325.12 242.078C331.227 238.738 338.24 237.068 346.16 237.068C353.89 237.068 360.76 238.69 366.772 241.935C372.783 245.179 377.459 249.807 380.799 255.819C384.234 261.83 385.952 268.844 385.952 276.859ZM360.903 270.418C360.903 266.22 359.472 262.88 356.609 260.399C353.746 257.918 350.168 256.678 345.874 256.678C341.771 256.678 338.288 257.87 335.425 260.256C332.658 262.641 330.941 266.029 330.273 270.418H360.903Z" fill="#000584"/>
<path d="M445.47 237.354C454.821 237.354 462.264 240.408 467.799 246.515C473.429 252.527 476.244 260.828 476.244 271.42V317.94C476.244 318.019 476.18 318.082 476.102 318.082C462.742 318.082 451.911 307.251 451.911 293.891V274.712C451.911 269.369 450.527 265.218 447.76 262.26C444.993 259.302 441.271 257.823 436.595 257.823C431.92 257.823 428.198 259.302 425.431 262.26C422.664 265.218 421.28 269.369 421.28 274.712V317.94C421.28 318.018 421.216 318.082 421.138 318.082C407.699 318.082 396.804 307.187 396.804 293.748V238.678C396.804 238.421 397.012 238.213 397.269 238.213H419.28C420.385 238.213 421.28 239.109 421.28 240.213V248.805C423.761 245.275 427.101 242.507 431.3 240.503C435.498 238.404 440.222 237.354 445.47 237.354Z" fill="#000584"/>
<circle cx="236.472" cy="91.9472" r="91.5246" fill="url(#paint0_linear_212_129)"/>
<path d="M152.548 366.212C152.548 383.333 166.427 397.212 183.548 397.212H292.696C309.817 397.212 323.696 383.333 323.696 366.212V361.089C323.696 343.968 309.817 330.089 292.696 330.089H152.548V366.212Z" fill="#66C8FF"/>
<path d="M190.103 372.758V378.538H184.454V372.758H190.103Z" fill="#000584"/>
<path d="M194.06 366.452C194.06 363.971 194.556 361.796 195.549 359.928C196.571 358.03 197.972 356.57 199.753 355.549C201.533 354.527 203.577 354.016 205.883 354.016C208.803 354.016 211.211 354.717 213.109 356.118C215.035 357.49 216.335 359.46 217.006 362.03H211.62C211.182 360.833 210.481 359.898 209.518 359.227C208.554 358.555 207.343 358.22 205.883 358.22C203.84 358.22 202.205 358.95 200.979 360.409C199.782 361.84 199.183 363.854 199.183 366.452C199.183 369.051 199.782 371.08 200.979 372.539C202.205 373.999 203.84 374.729 205.883 374.729C208.773 374.729 210.686 373.459 211.62 370.919H217.006C216.305 373.371 214.992 375.327 213.065 376.787C211.138 378.217 208.744 378.933 205.883 378.933C203.577 378.933 201.533 378.422 199.753 377.4C197.972 376.349 196.571 374.889 195.549 373.021C194.556 371.123 194.06 368.934 194.06 366.452Z" fill="#000584"/>
<path d="M234.461 354.016C236.3 354.016 237.935 354.41 239.366 355.198C240.825 355.986 241.964 357.154 242.781 358.701C243.628 360.249 244.051 362.117 244.051 364.307V378.538H239.103V365.051C239.103 362.891 238.563 361.241 237.483 360.103C236.403 358.935 234.928 358.351 233.06 358.351C231.192 358.351 229.703 358.935 228.593 360.103C227.513 361.241 226.973 362.891 226.973 365.051V378.538H221.981V346.134H226.973V357.213C227.82 356.191 228.885 355.403 230.17 354.848C231.483 354.293 232.914 354.016 234.461 354.016Z" fill="#000584"/>
<path d="M248.755 366.365C248.755 363.942 249.251 361.796 250.244 359.928C251.266 358.059 252.638 356.614 254.36 355.592C256.112 354.541 258.038 354.016 260.14 354.016C262.038 354.016 263.687 354.395 265.089 355.154C266.519 355.884 267.658 356.804 268.504 357.913V354.41H273.54V378.538H268.504V374.948C267.658 376.086 266.505 377.035 265.045 377.794C263.585 378.553 261.921 378.933 260.053 378.933C257.98 378.933 256.083 378.407 254.36 377.356C252.638 376.276 251.266 374.787 250.244 372.89C249.251 370.963 248.755 368.788 248.755 366.365ZM268.504 366.452C268.504 364.788 268.154 363.343 267.453 362.117C266.782 360.891 265.892 359.957 264.782 359.315C263.673 358.672 262.476 358.351 261.191 358.351C259.907 358.351 258.71 358.672 257.601 359.315C256.491 359.928 255.586 360.847 254.886 362.073C254.214 363.27 253.878 364.701 253.878 366.365C253.878 368.029 254.214 369.488 254.886 370.744C255.586 371.999 256.491 372.962 257.601 373.634C258.739 374.276 259.936 374.597 261.191 374.597C262.476 374.597 263.673 374.276 264.782 373.634C265.892 372.992 266.782 372.057 267.453 370.831C268.154 369.576 268.504 368.116 268.504 366.452Z" fill="#000584"/>
<path d="M285.921 358.483V371.839C285.921 372.744 286.126 373.4 286.534 373.809C286.972 374.189 287.702 374.378 288.724 374.378H291.789V378.538H287.848C285.6 378.538 283.878 378.013 282.681 376.962C281.484 375.911 280.885 374.203 280.885 371.839V358.483H278.039V354.41H280.885V348.411H285.921V354.41H291.789V358.483H285.921Z" fill="#000584"/>
<path fill-rule="evenodd" clip-rule="evenodd" d="M218.752 19.6391H252.817L273.296 0.422607C277.633 5.04364 279.955 11.1979 279.754 17.5316C279.552 23.8652 276.843 29.8594 272.222 34.1955C270.185 36.1072 269.686 39.3997 271.374 41.6259C276.373 48.2186 279.795 56.073 281.078 64.6274C272.306 65.4132 265.43 72.7842 265.43 81.7611C265.43 87.2486 269.449 90.6593 274.588 92.3969C275.336 92.6497 275.429 93.7735 274.72 94.1187C269.804 96.5105 265.316 99.7289 261.45 103.643C256.953 108.196 253.385 113.602 250.952 119.551C249.852 122.239 248.858 126.321 248.1 129.99C247.97 130.617 248.504 130.953 248.781 130.146C253.193 117.295 260.678 109.787 264.152 106.301C264.351 106.102 264.537 105.915 264.708 105.742C268.455 101.949 274.363 97.9398 279.258 95.887C283.635 94.0516 289.292 93.0126 294.016 92.8131H297.901C302.933 92.7272 307.725 93.4856 312.159 94.9384C317.861 96.8064 322.974 99.8223 327.253 103.668C335.765 111.317 340.981 122.247 340.981 133.954L340.981 167.956C340.981 174.853 346.573 180.445 353.47 180.445C356.981 180.445 360.153 178.997 362.422 176.665C361.442 190.435 349.961 201.301 335.942 201.301C321.28 201.301 309.395 189.415 309.395 174.753L310.216 146.166C293.553 168.792 266.727 183.472 236.472 183.472C228.369 183.472 220.512 182.419 213.03 180.442C213.872 176.264 214.923 170.152 214.906 165.748C214.879 158.418 213.509 152.168 206.139 143.811C185.261 120.137 191.815 104.042 198.449 97.0199C198.449 97.0199 206.139 87.2293 206.139 81.7611C206.139 72.2602 198.595 64.5623 188.553 64.5623C189.973 55.1768 193.969 46.6363 199.796 39.6838C201.14 38.0804 200.873 35.6271 199.347 34.1955C194.726 29.8594 192.017 23.8652 191.815 17.5316C191.614 11.1979 193.937 5.04364 198.273 0.422607L218.752 19.6391ZM220.291 44.6476C215.546 43.4579 212.63 40.238 212.767 36.5778C222.926 32.239 229.328 41.2625 229.328 41.2625C229.328 41.2625 226.008 46.0812 220.291 44.6476ZM258.63 36.5778C258.766 40.238 255.851 43.4579 251.106 44.6476C245.388 46.0812 242.068 41.2625 242.068 41.2625C242.068 41.2625 248.471 32.239 258.63 36.5778Z" fill="#000584"/>
<defs>
<linearGradient id="paint0_linear_212_129" x1="236.472" y1="0.422607" x2="236.472" y2="183.472" gradientUnits="userSpaceOnUse">
<stop offset="0.640625" stop-color="#65C8FF"/>
<stop offset="1" stop-color="#1F7AB7"/>
</linearGradient>
</defs>
</svg>
