<?xml version="1.0" encoding="UTF-8" standalone="no"?>
<svg
   viewBox="0 0 52.916665 52.916666"
   version="1.1"
   id="svg378"
   xmlns="http://www.w3.org/2000/svg"
   xmlns:svg="http://www.w3.org/2000/svg">
  <defs
     id="defs375" />
  <g
     id="layer1">
    <path
       id="path668-6-0-2"
       style="display:inline;fill:#ffffff;stroke-width:0.259796"
       d="M 7.0958238,0.39494076 C 5.9693164,1.595474 5.3662335,3.1945076 5.4185681,4.8399842 c 0.052392,1.6454494 0.7563068,3.2026664 1.9567874,4.329176 0.396336,0.3719228 0.46567,1.0094308 0.116531,1.4259988 -1.5140595,1.806234 -2.5523992,4.024813 -2.9213634,6.46312 2.6090367,0 4.5689775,1.999645 4.5689775,4.467958 0,1.420535 -1.9978708,3.964085 -1.9978708,3.964085 -1.7234653,1.824301 -3.4261911,6.00593 1.9978708,12.156344 1.9146704,2.171055 2.2712124,3.794957 2.2780944,5.699267 0.004,1.144145 -0.269038,2.732086 -0.487684,3.817247 1.943752,0.513625 3.984796,0.787434 6.08996,0.787434 7.860022,0 14.829415,-3.814249 19.158331,-9.692328 l -0.212858,7.427032 c 0,3.80888 3.088053,6.89692 6.896919,6.89692 3.642099,0 6.624804,-2.822404 6.879401,-6.39981 -0.589475,0.605844 -1.414018,0.98143 -2.325908,0.98143 -1.792079,0 -3.244693,-1.452209 -3.244693,-3.244028 v -8.834167 c 0,-3.041181 -1.355308,-5.880385 -3.566692,-7.867575 -1.111596,-0.999172 -2.439884,-1.782682 -3.920978,-2.267994 -1.152122,-0.377422 -2.39653,-0.574627 -3.704079,-0.552337 h -1.009052 c -1.227541,0.05187 -2.697634,0.322038 -3.834766,0.798877 -1.271703,0.533307 -2.806331,1.574255 -3.779524,2.559662 -0.04471,0.04497 -0.0932,0.09385 -0.14483,0.145486 -0.902545,0.90566 -2.846831,2.856725 -3.993048,6.195033 -0.07195,0.209626 -0.210943,0.122527 -0.177156,-0.0404 0.197177,-0.953133 0.455162,-2.014219 0.740938,-2.71256 0.632346,-1.545526 1.558821,-2.949636 2.727393,-4.132499 1.004032,-1.016847 2.170349,-1.853382 3.447437,-2.474778 0.18422,-0.08968 0.159989,-0.381581 -0.03441,-0.447264 -1.335105,-0.451422 -2.379143,-1.337516 -2.379143,-2.763069 0,-2.332177 1.786684,-4.246967 4.065808,-4.451118 C 28.275647,14.852726 27.386424,12.812451 26.0877,11.099689 25.649169,10.52136 25.778762,9.6658324 26.307963,9.1691655 27.508481,8.0426559 28.212519,6.4854388 28.264749,4.8399893 28.317013,3.1945128 27.713311,1.5954792 26.586842,0.394946 L 21.266123,5.3876047 H 12.416469 Z M 12.082423,9.5726539 c 1.827495,-0.024237 2.925419,1.5236681 2.925419,1.5236681 0,0 -0.284395,0.410257 -0.805604,0.691105 a 1.0110635,0.89956302 0 0 0 0.06596,-0.320643 1.0110635,0.89956302 0 0 0 -1.010382,-0.899247 1.0110635,0.89956302 0 0 0 -1.011738,0.899247 1.0110635,0.89956302 0 0 0 0.117836,0.418977 C 11.308223,11.52458 10.672435,10.750885 10.704854,9.8791287 11.199746,9.6677693 11.660618,9.5782455 12.082347,9.5726539 Z m 9.160872,0 c 0.421717,0.00651 0.881962,0.095154 1.37683,0.3064748 0.01799,0.4829013 -0.16931,0.9356923 -0.518669,1.3054253 a 1.0476442,0.93210967 0 0 0 -1.033974,-0.784072 1.0476442,0.93210967 0 0 0 -1.048104,0.932252 1.0476442,0.93210967 0 0 0 0.354977,0.695159 c -1.306323,0.155753 -2.056478,-0.931571 -2.056478,-0.931571 0,0 1.097989,-1.5479391 2.925418,-1.5236681 z m -10.857641,4.2227491 4.081294,0.439182 -0.06934,0.645302 -4.081307,-0.438518 z m 12.938364,0.06127 0.06948,0.64598 -4.081306,0.438503 -0.06934,-0.645302 z m -6.505549,0.27347 a 1.6895096,1.1114297 0 0 1 1.689365,1.11144 1.6895096,1.1114297 0 0 1 -1.689365,1.111414 1.6895096,1.1114297 0 0 1 -1.689378,-1.111414 1.6895096,1.1114297 0 0 1 1.689378,-1.11144 z m -2.322558,1.360666 0.155597,0.631145 -3.984967,0.983452 -0.155609,-0.630481 z m 4.715152,0.13538 3.984979,0.984129 -0.155596,0.629802 -3.98498,-0.983437 z" />
  </g>
</svg>
