<?xml version="1.0" encoding="UTF-8" standalone="no"?>
<svg
   viewBox="0 0 100 100"
   fill="none"
   version="1.1"
   id="svg1468"
   xmlns="http://www.w3.org/2000/svg"
   xmlns:svg="http://www.w3.org/2000/svg">
  <defs
     id="defs1472" />
  <path
     fill-rule="evenodd"
     clip-rule="evenodd"
     d="M 38.417559,10.20126 H 21.459504 L 11.264659,0.63501 C 9.106085,2.9354263 7.949761,5.9991069 8.05007,9.1521153 c 0.10031,3.1529587 1.448989,6.1369587 3.749441,8.2955327 0.759466,0.712672 0.892731,1.93396 0.223717,2.732156 C 9.122015,23.64086 7.132996,27.892446 6.426,32.564685 c 4.999353,0 8.754618,3.832127 8.754618,8.561814 0,2.72215 -3.828095,7.596054 -3.828095,7.596054 -3.302453,3.495505 -6.565329,11.507831 3.828095,23.293592 3.668844,4.160237 4.351099,7.271081 4.364589,10.920062 0.0081,2.192375 -0.515138,5.235516 -0.934099,7.315386 3.724549,0.983681 7.635929,1.50788 11.66977,1.50788 15.061282,0 28.415657,-7.307918 36.710742,-18.571472 l -0.40871,14.231524 c 0,7.298958 5.91703,13.215485 13.21549,13.215485 6.97886,0 12.69427,-5.409254 13.18213,-12.263663 -1.12954,1.160406 -2.70861,1.881241 -4.45594,1.881241 -3.43392,0 -6.2177,-2.783281 -6.2177,-6.217206 V 67.108689 c 0,-5.827418 -2.5966,-11.26903 -6.834,-15.076814 -2.13015,-1.914097 -4.67548,-3.415605 -7.51352,-4.345523 -2.20781,-0.723225 -4.59284,-1.100768 -7.098337,-1.058005 h -1.933512 c -2.352174,0.09931 -5.168311,0.616543 -7.347246,1.530232 -2.436803,1.021914 -5.377891,3.017553 -7.242705,4.905764 -0.08562,0.08662 -0.178218,0.179213 -0.277283,0.278776 -1.729408,1.734884 -5.455052,5.472974 -7.65141,11.869892 -0.137895,0.401736 -0.404226,0.23447 -0.33951,-0.07766 0.377841,-1.826482 0.872171,-3.858561 1.419767,-5.196189 1.211681,-2.961997 2.987386,-5.652685 5.226556,-7.919733 1.924054,-1.948297 4.158246,-3.550464 6.605502,-4.741137 0.352951,-0.171845 0.306654,-0.731289 -0.06571,-0.857137 -2.55827,-0.865003 -4.558987,-2.562899 -4.558987,-5.294657 0,-4.468832 3.422974,-8.138223 7.790301,-8.529406 -0.638696,-4.258505 -2.342715,-8.16854 -4.83129,-11.450483 -0.840312,-1.108185 -0.591902,-2.747289 0.422146,-3.698962 2.300402,-2.158574 3.649479,-5.142574 3.74954,-8.2955327 0.10006,-3.1530074 -1.055866,-6.216688 -3.21439,-8.5171043 z m -19.937625,8.432332 c -0.06775,1.822101 1.383476,3.425014 3.745706,4.017265 2.846355,0.713667 4.49905,-1.685153 4.49905,-1.685153 0,0 -3.187159,-4.49203 -8.244756,-2.332112 z m 19.085864,4.017265 c 2.36213,-0.592251 3.81326,-2.195164 3.745557,-4.017265 -5.057299,-2.159918 -8.244557,2.332112 -8.244557,2.332112 0,0 1.652496,2.39882 4.499,1.685153 z"
     fill="#000000"
     id="path1466"
     sodipodi:nodetypes="cccscccsccscsccscssscccccccccccccscscscccccccccc"
     style="fill:#ffffff;stroke-width:0.497815" />
</svg>
